<?xml version="1.0" standalone="no"?>
<!DOCTYPE svg PUBLIC "-//W3C//DTD SVG 20010904//EN"
 "http://www.w3.org/TR/2001/REC-SVG-20010904/DTD/svg10.dtd">
<svg version="1.0" xmlns="http://www.w3.org/2000/svg"
 width="1000.000000pt" height="1000.000000pt" viewBox="0 0 1000.000000 1000.000000"
 preserveAspectRatio="xMidYMid meet">
<metadata>
Created by potrace 1.11, written by Peter Selinger 2001-2013
</metadata>
<g transform="translate(0.000000,1000.000000) scale(0.100000,-0.100000)"
fill="#000000" stroke="none">
<path d="M4823 8408 c1 -391 -5 -704 -18 -883 -20 -297 -18 -282 -39 -455 -24
-194 -60 -387 -100 -535 -44 -164 -110 -297 -185 -378 -50 -54 -96 -81 -156
-91 -22 -4 -51 -10 -64 -13 -23 -6 -24 -4 -18 28 12 65 17 89 27 114 5 14 7
25 5 25 -2 0 0 12 6 28 6 15 12 34 14 42 12 57 85 277 115 345 10 22 37 131
44 180 12 74 17 119 31 285 3 41 8 86 10 100 21 123 24 442 5 520 -46 197
-183 283 -450 284 -106 0 -221 -8 -280 -19 -13 -3 -40 -7 -60 -10 -101 -15
-292 -68 -317 -88 -7 -5 -13 -7 -13 -4 0 8 -168 -66 -247 -109 -240 -130 -508
-354 -748 -625 -116 -131 -467 -625 -567 -799 -165 -286 -421 -795 -573 -1139
-67 -151 -194 -508 -317 -891 -58 -183 -257 -840 -263 -871 -2 -9 -13 -49 -25
-89 -12 -40 -23 -80 -25 -89 -2 -9 -11 -43 -20 -76 -39 -140 -76 -280 -80
-309 -3 -17 -12 -67 -20 -111 -7 -44 -16 -93 -19 -110 -3 -16 -8 -43 -11 -60
-41 -211 -58 -317 -72 -465 -10 -103 -11 -374 -1 -450 17 -141 81 -292 165
-389 49 -58 140 -116 222 -142 76 -24 269 -33 386 -18 165 22 551 144 1065
336 433 161 631 221 960 287 346 70 410 90 551 172 162 94 371 283 472 425 57
81 125 222 166 345 33 99 87 298 96 354 3 19 10 54 15 77 13 56 38 215 45 288
4 33 8 67 10 75 17 65 24 464 12 645 -4 55 -10 156 -12 225 -3 69 -7 152 -10
185 -8 102 -17 199 -21 230 -7 51 -6 299 1 346 17 118 35 164 78 209 29 30 65
60 72 60 3 0 29 16 59 35 30 19 57 35 60 35 11 0 142 84 181 116 l40 32 30
-24 c17 -14 82 -56 145 -95 63 -39 126 -81 140 -93 14 -12 49 -37 77 -56 84
-55 97 -96 98 -295 0 -88 -4 -207 -9 -265 -5 -58 -10 -123 -11 -145 -8 -94
-15 -274 -20 -465 -3 -113 -8 -252 -11 -310 -8 -139 -8 -193 0 -265 4 -33 9
-82 11 -110 4 -59 16 -183 20 -205 1 -8 6 -35 10 -60 4 -25 9 -52 10 -60 1 -8
6 -35 10 -60 12 -76 73 -314 101 -392 70 -194 217 -431 354 -569 182 -183 398
-290 720 -354 69 -14 161 -34 205 -45 44 -10 91 -21 105 -24 98 -19 250 -65
480 -146 96 -34 236 -82 310 -106 74 -24 144 -49 155 -54 43 -19 356 -129 465
-163 116 -37 288 -82 348 -92 17 -3 47 -8 65 -11 97 -17 132 -20 232 -18 153
2 212 21 339 109 113 80 189 228 219 431 15 96 16 428 3 514 -3 19 -8 55 -11
80 -3 25 -7 61 -10 80 -5 38 -11 94 -20 180 -7 67 -22 166 -30 200 -3 14 -7
36 -10 50 -17 92 -124 493 -183 690 -11 36 -45 148 -76 250 -73 246 -226 704
-336 1010 -23 63 -45 126 -50 140 -4 14 -24 66 -43 115 -33 87 -57 139 -154
345 -25 52 -65 136 -88 185 -99 211 -132 277 -200 400 -69 123 -114 201 -265
452 -191 319 -379 607 -502 768 -139 180 -452 462 -666 599 -174 111 -455 220
-642 249 -235 37 -506 -12 -663 -118 -88 -59 -96 -70 -122 -152 -14 -43 -30
-88 -36 -100 -18 -34 -15 -190 6 -358 2 -16 7 -61 10 -99 4 -38 11 -79 15 -92
11 -28 46 -172 56 -229 4 -22 8 -49 11 -60 2 -11 6 -36 9 -55 28 -186 91 -427
158 -604 14 -37 26 -71 26 -73 0 -3 -15 -2 -32 1 -18 4 -42 9 -53 11 -11 3
-33 7 -49 11 -29 6 -87 37 -119 64 -51 42 -147 209 -176 305 -7 22 -17 49 -22
60 -12 28 -76 280 -88 351 -6 33 -12 68 -14 79 -4 18 -13 69 -22 135 -4 25
-10 77 -20 165 -14 122 -15 134 -31 390 -8 114 -11 919 -4 1085 8 190 28 170
-169 170 l-168 0 0 -462z"/>
</g>
</svg>
