<svg xmlns="http://www.w3.org/2000/svg" xmlns:xlink="http://www.w3.org/1999/xlink" width="69" height="69" viewBox="0 0 69 69">
  <defs>
    <clipPath id="clip-path">
      <rect id="Rectangle_2023" data-name="Rectangle 2023" width="69" height="69" transform="translate(565 1978.904)" fill="#f7f7f7" stroke="#707070" stroke-width="1"/>
    </clipPath>
  </defs>
  <g id="Mask_Group_32" data-name="Mask Group 32" transform="translate(-565 -1978.904)" clip-path="url(#clip-path)">
    <g id="_001-check-in" data-name="001-check-in" transform="translate(565 1979)">
      <path id="Path_12497" data-name="Path 12497" d="M70.922,34.174H69.156a4.564,4.564,0,0,0,.618-2.3,15.823,15.823,0,0,0-1.662-7.04l-.756-1.512a1.148,1.148,0,0,0-.514-.514l-2.649-1.325a3.935,3.935,0,0,0,2.868-5.642l-.733-1.465V13.5a8.047,8.047,0,0,0-8.073-8.04h-.173A7.833,7.833,0,0,0,50.25,13.3V14.38l-.733,1.465A3.935,3.935,0,0,0,53,21.54l-2.189,1.313a1.148,1.148,0,0,0-.535.76L49.256,28.7,43,30.787a1.148,1.148,0,0,0-.785,1.089v2.3H41.54l-6.218-6.218V21.147a5.7,5.7,0,0,0-1.682-4.06l-2.4-2.4a4.564,4.564,0,0,0,.638-2.332V6.96A3.793,3.793,0,0,0,25.98,3.8L23.2,5.656a1.148,1.148,0,0,0-.511.956v5.742a4.564,4.564,0,0,0,.638,2.332l-2.98,2.98A5.77,5.77,0,0,0,18.96,19.91l-3.1,9.307a1.148,1.148,0,0,0-.019.665l3.445,12.632a1.148,1.148,0,0,0,1.108.846h1.475l-.325,12.53L20.393,63.37V50.251A1.148,1.148,0,0,0,19.244,49.1H15.8V43.361a1.148,1.148,0,0,0-1.148-1.148H8.909A1.148,1.148,0,0,0,7.76,43.361V49.1H4.315a1.148,1.148,0,0,0-1.148,1.148V68.626a1.148,1.148,0,0,0,1.148,1.148h2.3v1.148a1.148,1.148,0,0,0,2.3,0V69.774h5.742v1.148a1.148,1.148,0,0,0,2.3,0V69.774h2.3a1.152,1.152,0,0,0,.165-.013l-.152.987a1.148,1.148,0,0,0,1.135,1.323h3.445a1.148,1.148,0,0,0,1.069-.729l3.879-9.9,3.145,9.829a1.148,1.148,0,0,0,1.094.8h37.9a1.148,1.148,0,0,0,1.148-1.148v-35.6a1.148,1.148,0,0,0-1.148-1.148ZM10.057,44.509H13.5V49.1H10.057ZM18.1,67.477H5.463V51.4h2.3v2.3h2.3V51.4H13.5v2.3h2.3V51.4h2.3ZM66.058,25.864a13.515,13.515,0,0,1,1.419,6.013,2.3,2.3,0,0,1-2.3,2.3H61.735V31.625l3.724-.931L64.9,28.466l-2.018.5V23.4l2.589,1.295Zm-5.471-8.916a2.3,2.3,0,1,1-4.594,0V13.978l1.148-1.148,1.485,1.485a1.148,1.148,0,0,0,.812.336h1.148ZM57.46,21.541h1.708l1.42.71v7.294l-4.594,1.148V22.421Zm-.318,11.232,2.3-.574v1.974h-2.3ZM51.4,17.606a1.647,1.647,0,0,1,.173-.733l.854-1.708a1.148,1.148,0,0,0,.121-.514V13.3a5.536,5.536,0,0,1,5.536-5.54h.173a5.754,5.754,0,0,1,4.091,1.684,5.692,5.692,0,0,1,1.685,4.06v1.147a1.148,1.148,0,0,0,.121.514l.854,1.707a1.639,1.639,0,0,1-1.466,2.372H62.266a4.564,4.564,0,0,0,.618-2.3V13.5a1.148,1.148,0,0,0-1.148-1.148H59.914l-1.96-1.96a1.148,1.148,0,0,0-1.624,0l-2.3,2.3a1.148,1.148,0,0,0-.336.812v3.445a4.564,4.564,0,0,0,.618,2.3H53.038A1.641,1.641,0,0,1,51.4,17.606Zm-.785,13.064a1.148,1.148,0,0,0,.763-.864l1.049-5.244L53.7,23.8V34.174H49.1v-3ZM44.509,32.7l2.3-.766v2.235h-2.3ZM41.54,36.47H69.774v3.445H35.554l-.181-2.71,2.88,1.44a1.148,1.148,0,0,0,1.326-.215Zm-2.1-1.148-.9.9-3.218-1.609V31.2ZM24.986,12.354v-2.3H29.58v2.3a2.3,2.3,0,1,1-4.594,0Zm0-5.127,2.268-1.512A1.5,1.5,0,0,1,29.58,6.96v.8H24.986Zm-3.847,13.41a3.463,3.463,0,0,1,.832-1.347l2.98-2.98a4.579,4.579,0,0,0,4.663,0l2.4,2.4a3.423,3.423,0,0,1,1.009,2.436V35.322H24.986V31l3.324-6.648-2.054-1.027-1.851,3.7-4.856-1.619Zm-2.992,8.977.675-2.026L23.367,29.1l-.556,1.112a1.148,1.148,0,0,0-.121.514V41.064H21.27Zm4.908,40.161H21.731l2.093-13.606a1.139,1.139,0,0,0,.013-.145l.241-9.291,3.6,11.247Zm11.119,0h-.31L24.986,42.033V37.619H33.1l2.144,32.155Zm3.371,0L35.707,42.212H69.774V69.774Z" transform="translate(-3.167 -3.167)" fill="#f7f7f7"/>
      <rect id="Rectangle_2024" data-name="Rectangle 2024" width="2.297" height="2.297" transform="translate(49.381 60.865)" fill="#f7f7f7"/>
      <rect id="Rectangle_2025" data-name="Rectangle 2025" width="9.187" height="2.297" transform="translate(53.975 60.865)" fill="#f7f7f7"/>
      <rect id="Rectangle_2026" data-name="Rectangle 2026" width="6.89" height="2.297" transform="translate(56.272 56.272)" fill="#f7f7f7"/>
    </g>
  </g>
</svg>
