<svg id="_001-ambulance" data-name="001-ambulance" xmlns="http://www.w3.org/2000/svg" width="97.604" height="57.268" viewBox="0 0 97.604 57.268">
  <path id="Path_218" data-name="Path 218" d="M96.579,145.635V130.223a4.32,4.32,0,0,0-4.314-4.316H84.825a1.444,1.444,0,0,1-1.344-.9l-2.755-6.8c-.009-.022-.017-.044-.027-.066l-1.169-2.884c-.612-1.506-1.945-4.033-4-4.033H74.279v-3.217a2.408,2.408,0,0,0-2.406-2.406H67.114a2.408,2.408,0,0,0-2.406,2.406v3.217h-1.67v-.069a3.824,3.824,0,0,0-3.82-3.82H15.953a1.432,1.432,0,1,0,0,2.865H59.218a.956.956,0,0,1,.955.955v6.755a1.432,1.432,0,1,0,2.865,0v-3.822H75.456a5.558,5.558,0,0,1,1.421,2.245l.387.954H70.428a2.466,2.466,0,0,0-2.463,2.463v6.56a2.466,2.466,0,0,0,2.463,2.463l21.836,0a1.452,1.452,0,0,1,1.45,1.451v.946H88.229a2.109,2.109,0,0,0-2.107,2.107V137.8a2.109,2.109,0,0,0,2.107,2.107h5.485v4.663H79.931a9.514,9.514,0,0,0-6.895,0h-10V124.4a1.432,1.432,0,1,0-2.865,0v20.164H23.417a9.525,9.525,0,0,0-6.894,0H3.89V111.155a.956.956,0,0,1,.955-.955H9.459a1.432,1.432,0,1,0,0-2.865H4.845a3.824,3.824,0,0,0-3.82,3.82v34.48A3.55,3.55,0,0,0,0,148.132v3.124a3.57,3.57,0,0,0,3.566,3.566H10.6a9.482,9.482,0,0,0,18.747,0H67.113a9.479,9.479,0,0,0,18.745,0h8.181a3.57,3.57,0,0,0,3.566-3.566v-3.124A3.551,3.551,0,0,0,96.579,145.635ZM67.573,108.467h3.841v2.758H67.573Zm3.257,11.687h7.594l2.333,5.757H70.83ZM88.987,137.04v-3.006h4.726v3.006ZM67.33,150.945a9.678,9.678,0,0,0-.212,1.012H29.337a9.507,9.507,0,0,0-2-4.524H69.117a9.454,9.454,0,0,0-1.787,3.512Zm-64.465.311v-3.124a.7.7,0,0,1,.7-.7H12.6a9.533,9.533,0,0,0-2.006,4.524H3.566a.7.7,0,0,1-.7-.7Zm22.615,5.8a6.605,6.605,0,1,1,.514-.926,6.673,6.673,0,0,1-.514.926Zm57.4-1.945a6.61,6.61,0,1,1,.206-1.2,6.664,6.664,0,0,1-.206,1.2Zm11.864-3.854a.7.7,0,0,1-.7.7H85.858a9.554,9.554,0,0,0-2-4.524H94.039a.7.7,0,0,1,.7.7Z" transform="translate(0 -105.602)" fill="#fff"/>
  <path id="Path_219" data-name="Path 219" d="M118.773,166.584h-3.646a2.683,2.683,0,0,0-2.68,2.68v4.8h-4.8a2.683,2.683,0,0,0-2.68,2.68v3.646a2.683,2.683,0,0,0,2.68,2.68h4.8v4.8a2.683,2.683,0,0,0,2.68,2.679h3.646a2.683,2.683,0,0,0,2.679-2.679v-4.8h4.8a2.683,2.683,0,0,0,2.68-2.68v-3.646a2.683,2.683,0,0,0-2.68-2.68h-4.8v-4.8A2.683,2.683,0,0,0,118.773,166.584Zm7.3,13.623H120.02a1.432,1.432,0,0,0-1.432,1.432v6.051h-3.275V181.64a1.432,1.432,0,0,0-1.432-1.432h-6.051v-3.275h6.051a1.432,1.432,0,0,0,1.432-1.432v-6.051h3.275V175.5a1.432,1.432,0,0,0,1.432,1.432h6.051Z" transform="translate(-84.918 -154.937)" fill="#fff"/>
  <path id="Path_220" data-name="Path 220" d="M346.514,240.884a1.432,1.432,0,1,0,0-2.865h-3.257a1.432,1.432,0,1,0,0,2.865Z" transform="translate(-276.542 -212.729)" fill="#fff"/>
</svg>
