<svg xmlns="http://www.w3.org/2000/svg" width="19.233" height="12.822" viewBox="0 0 19.233 12.822">
  <g id="Group_4772" data-name="Group 4772" transform="translate(-0.387 -3.379)">
    <g id="_003-mail" data-name="003-mail" transform="translate(0.387 3.379)">
      <g id="Group_4771" data-name="Group 4771">
        <path id="Path_11009" data-name="Path 11009" d="M18.247,6.333H.986A.989.989,0,0,0,0,7.32v10.85a.989.989,0,0,0,.986.986H18.247a.989.989,0,0,0,.986-.986V7.32A.989.989,0,0,0,18.247,6.333Zm-.37.74-7.693,5.77a1.031,1.031,0,0,1-1.135,0L1.356,7.073Zm-4.109,6.151L17.96,18.4l.014.014H1.26l.014-.014,4.192-5.178a.37.37,0,0,0-.575-.466L.74,17.886V7.535l7.866,5.9a1.766,1.766,0,0,0,2.022,0l7.866-5.9v10.35l-4.151-5.128a.37.37,0,0,0-.575.466Z" transform="translate(0 -6.333)" fill="#2c8bbd"/>
      </g>
    </g>
  </g>
</svg>
