<svg xmlns="http://www.w3.org/2000/svg" xmlns:xlink="http://www.w3.org/1999/xlink" width="87" height="87" viewBox="0 0 87 87">
  <defs>
    <clipPath id="clip-path">
      <rect id="Rectangle_50" data-name="Rectangle 50" width="38" height="38" transform="translate(1116 63)" fill="#fff" stroke="#707070" stroke-width="1"/>
    </clipPath>
  </defs>
  <g id="Group_4284" data-name="Group 4284" transform="translate(-1202 -5359)">
    <g id="Group_4283" data-name="Group 4283">
      <g id="Group_125" data-name="Group 125" transform="translate(78 -50)">
        <g id="Group_124" data-name="Group 124" transform="translate(623 7)">
          <g id="Rectangle_109" data-name="Rectangle 109" transform="translate(508 5409)" fill="none" stroke="#fff" stroke-width="3">
            <rect width="73" height="73" rx="36.5" stroke="none"/>
            <rect x="1.5" y="1.5" width="70" height="70" rx="35" fill="none"/>
          </g>
          <g id="Rectangle_112" data-name="Rectangle 112" transform="translate(501 5402)" fill="none" stroke="#fff" stroke-width="2">
            <rect width="87" height="87" rx="43.5" stroke="none"/>
            <rect x="1" y="1" width="85" height="85" rx="42.5" fill="none"/>
          </g>
        </g>
        <g id="Mask_Group_11" data-name="Mask Group 11" transform="translate(33 5371)" clip-path="url(#clip-path)">
          <g id="_003-mail" data-name="003-mail" transform="translate(1116 63)">
            <g id="Group_63" data-name="Group 63">
              <path id="Path_69" data-name="Path 69" d="M36.051,6.333H1.949A1.954,1.954,0,0,0,0,8.282V29.718a1.955,1.955,0,0,0,1.949,1.949h34.1A1.955,1.955,0,0,0,38,29.718V8.282A1.955,1.955,0,0,0,36.051,6.333ZM35.32,7.795l-15.2,11.4a2.037,2.037,0,0,1-2.242,0L2.68,7.795ZM27.2,19.947l8.282,10.231c.008.01.018.018.027.027H2.489c.009-.01.019-.017.027-.027L10.8,19.947a.731.731,0,0,0-1.136-.92l-8.2,10.131V8.708L17,20.364a3.488,3.488,0,0,0,3.995,0L36.538,8.708v20.45l-8.2-10.131a.731.731,0,0,0-1.136.92Z" fill="#fff"/>
            </g>
          </g>
        </g>
      </g>
    </g>
  </g>
</svg>
