<svg xmlns="http://www.w3.org/2000/svg" width="51" height="51.002" viewBox="0 0 51 51.002">
  <path id="Exclusion_1" data-name="Exclusion 1" d="M24.738,51H5.312A5.318,5.318,0,0,1,0,45.688V5.312A5.318,5.318,0,0,1,5.312,0H45.688A5.318,5.318,0,0,1,51,5.312V45.688A5.318,5.318,0,0,1,45.688,51H33.239V31.875h5.312a1.063,1.063,0,0,0,1.007-.727l2.125-6.375a1.062,1.062,0,0,0-.673-1.343,1.04,1.04,0,0,0-.334-.055H33.239V18.062a3.191,3.191,0,0,1,3.187-3.187h4.251a1.064,1.064,0,0,0,1.063-1.063V7.438a1.065,1.065,0,0,0-1.063-1.063H36.426A11.7,11.7,0,0,0,24.738,18.062v5.313H19.426a1.064,1.064,0,0,0-1.063,1.063v6.375a1.064,1.064,0,0,0,1.063,1.063h5.312V51Z" fill="#fff"/>
</svg>
