<svg xmlns="http://www.w3.org/2000/svg" xmlns:xlink="http://www.w3.org/1999/xlink" width="17" height="17" viewBox="0 0 17 17">
  <defs>
    <clipPath id="clip-path">
      <rect id="Rectangle_49" data-name="Rectangle 49" width="17" height="17" transform="translate(0.263 0.371)" fill="#2c8bbd" stroke="#707070" stroke-width="1"/>
    </clipPath>
  </defs>
  <g id="Mask_Group_10" data-name="Mask Group 10" transform="translate(-0.263 -0.371)" clip-path="url(#clip-path)">
    <g id="_002-telephone" data-name="002-telephone" transform="translate(0.271 0.403)">
      <g id="Group_52" data-name="Group 52" transform="translate(10.166 0)">
        <g id="Group_51" data-name="Group 51">
          <path id="Path_63" data-name="Path 63" d="M23.708,0a.275.275,0,1,0,0,.55,5.5,5.5,0,0,1,5.5,5.5.275.275,0,1,0,.55,0A6.052,6.052,0,0,0,23.708,0Z" transform="translate(-23.433)" fill="#2c8bbd"/>
        </g>
      </g>
      <g id="Group_54" data-name="Group 54" transform="translate(10.166 1.649)">
        <g id="Group_53" data-name="Group 53">
          <path id="Path_64" data-name="Path 64" d="M23.708,3.8a.275.275,0,1,0,0,.55A3.851,3.851,0,0,1,27.554,8.2a.275.275,0,0,0,.55,0A4.4,4.4,0,0,0,23.708,3.8Z" transform="translate(-23.433 -3.8)" fill="#2c8bbd"/>
        </g>
      </g>
      <g id="Group_56" data-name="Group 56" transform="translate(10.166 3.297)">
        <g id="Group_55" data-name="Group 55">
          <path id="Path_65" data-name="Path 65" d="M23.708,7.6a.275.275,0,1,0,0,.55,2.2,2.2,0,0,1,2.2,2.2.275.275,0,0,0,.55,0A2.751,2.751,0,0,0,23.708,7.6Z" transform="translate(-23.433 -7.6)" fill="#2c8bbd"/>
        </g>
      </g>
      <g id="Group_58" data-name="Group 58" transform="translate(0)">
        <g id="Group_57" data-name="Group 57">
          <path id="Path_66" data-name="Path 66" d="M14.868,10.311a10.042,10.042,0,0,1-2.191-.545,1.886,1.886,0,0,0-1.981.423l-.869.867a12.538,12.538,0,0,1-4.419-4.41l.869-.867A1.877,1.877,0,0,0,6.7,3.8a10,10,0,0,1-.546-2.189A1.883,1.883,0,0,0,4.28,0h-2.4c-.056,0-.112,0-.168.008a1.875,1.875,0,0,0-1.7,2.04A16.154,16.154,0,0,0,2.51,9.1,15.986,15.986,0,0,0,7.4,13.98a16.234,16.234,0,0,0,7.04,2.5q.085.007.171.007h.005a1.878,1.878,0,0,0,1.87-1.881v-2.4A1.875,1.875,0,0,0,14.868,10.311ZM15.936,12.2v2.407a1.328,1.328,0,0,1-1.322,1.33c-.043,0-.084,0-.12,0a15.683,15.683,0,0,1-6.8-2.414A15.438,15.438,0,0,1,2.972,8.8,15.6,15.6,0,0,1,.555,1.993,1.326,1.326,0,0,1,1.758.555C1.8.551,1.836.55,1.876.55H4.3A1.33,1.33,0,0,1,5.61,1.686a10.549,10.549,0,0,0,.576,2.308,1.326,1.326,0,0,1-.3,1.4L4.871,6.406a.275.275,0,0,0-.045.331,13.085,13.085,0,0,0,4.911,4.9.274.274,0,0,0,.33-.044l1.017-1.014a1.335,1.335,0,0,1,1.4-.3,10.58,10.58,0,0,0,2.309.575A1.325,1.325,0,0,1,15.936,12.2Z" transform="translate(0 0)" fill="#2c8bbd"/>
        </g>
      </g>
      <g id="Group_60" data-name="Group 60" transform="translate(1.098 1.099)">
        <g id="Group_59" data-name="Group 59">
          <path id="Path_67" data-name="Path 67" d="M5.554,2.533H3.309c-.023,0-.046,0-.069,0a.777.777,0,0,0-.706.829,15.7,15.7,0,0,0,.559,2.819.275.275,0,0,0,.263.2.272.272,0,0,0,.079-.012.275.275,0,0,0,.185-.342,15.121,15.121,0,0,1-.539-2.715.218.218,0,0,1,.053-.147.242.242,0,0,1,.175-.082H5.554a.275.275,0,0,0,0-.55Z" transform="translate(-2.531 -2.533)" fill="#2c8bbd"/>
        </g>
      </g>
      <g id="Group_62" data-name="Group 62" transform="translate(11.54 12.09)">
        <g id="Group_61" data-name="Group 61">
          <path id="Path_68" data-name="Path 68" d="M30.172,27.867a.275.275,0,0,0-.275.275v2.242a.229.229,0,0,1-.066.163.224.224,0,0,1-.155.068H29.65a15.11,15.11,0,0,1-2.7-.537.275.275,0,0,0-.158.526,15.666,15.666,0,0,0,2.8.558c.023,0,.068,0,.075,0a.778.778,0,0,0,.775-.782V28.141A.275.275,0,0,0,30.172,27.867Z" transform="translate(-26.6 -27.867)" fill="#2c8bbd"/>
        </g>
      </g>
    </g>
  </g>
</svg>
