<svg xmlns="http://www.w3.org/2000/svg" xmlns:xlink="http://www.w3.org/1999/xlink" width="87" height="87" viewBox="0 0 87 87">
  <defs>
    <clipPath id="clip-path">
      <rect id="Rectangle_49" data-name="Rectangle 49" width="38" height="38" transform="translate(897 59)" fill="#fff" stroke="#707070" stroke-width="1"/>
    </clipPath>
  </defs>
  <g id="Group_4285" data-name="Group 4285" transform="translate(-930 -5359)">
    <g id="Group_4284" data-name="Group 4284">
      <g id="Group_4283" data-name="Group 4283">
        <g id="Group_126" data-name="Group 126" transform="translate(90 -30)">
          <g id="Group_123" data-name="Group 123" transform="translate(339 -13)">
            <g id="Rectangle_109" data-name="Rectangle 109" transform="translate(508 5409)" fill="none" stroke="#fff" stroke-width="3">
              <rect width="73" height="73" rx="36.5" stroke="none"/>
              <rect x="1.5" y="1.5" width="70" height="70" rx="35" fill="none"/>
            </g>
            <g id="Rectangle_112" data-name="Rectangle 112" transform="translate(501 5402)" fill="none" stroke="#fff" stroke-width="2">
              <rect width="87" height="87" rx="43.5" stroke="none"/>
              <rect x="1" y="1" width="85" height="85" rx="42.5" fill="none"/>
            </g>
          </g>
          <g id="Mask_Group_10" data-name="Mask Group 10" transform="translate(-32 5355)" clip-path="url(#clip-path)">
            <g id="_002-telephone" data-name="002-telephone" transform="translate(897 59)">
              <g id="Group_52" data-name="Group 52">
                <g id="Group_51" data-name="Group 51">
                  <path id="Path_63" data-name="Path 63" d="M24.066,0a.633.633,0,0,0,0,1.267A12.681,12.681,0,0,1,36.733,13.933a.633.633,0,1,0,1.267,0A13.949,13.949,0,0,0,24.066,0Z" fill="#fff"/>
                </g>
              </g>
              <g id="Group_54" data-name="Group 54">
                <g id="Group_53" data-name="Group 53">
                  <path id="Path_64" data-name="Path 64" d="M24.066,3.8a.633.633,0,0,0,0,1.267,8.876,8.876,0,0,1,8.867,8.867.633.633,0,1,0,1.267,0A10.145,10.145,0,0,0,24.066,3.8Z" fill="#fff"/>
                </g>
              </g>
              <g id="Group_56" data-name="Group 56">
                <g id="Group_55" data-name="Group 55">
                  <path id="Path_65" data-name="Path 65" d="M24.066,7.6a.633.633,0,0,0,0,1.267,5.073,5.073,0,0,1,5.067,5.067.633.633,0,1,0,1.267,0A6.341,6.341,0,0,0,24.066,7.6Z" fill="#fff"/>
                </g>
              </g>
              <g id="Group_58" data-name="Group 58">
                <g id="Group_57" data-name="Group 57">
                  <path id="Path_66" data-name="Path 66" d="M34.272,23.766a23.146,23.146,0,0,1-5.05-1.256,4.347,4.347,0,0,0-4.567.974l-2,2A28.9,28.9,0,0,1,12.467,15.317l2-2a4.326,4.326,0,0,0,.975-4.557,23.05,23.05,0,0,1-1.259-5.046A4.341,4.341,0,0,0,9.865,0H4.324c-.129,0-.258.006-.386.018a4.322,4.322,0,0,0-3.919,4.7A37.236,37.236,0,0,0,5.784,20.973,36.848,36.848,0,0,0,17.056,32.225a37.42,37.42,0,0,0,16.227,5.758q.2.017.393.017h.012A4.328,4.328,0,0,0,38,33.665V28.143A4.323,4.323,0,0,0,34.272,23.766Zm2.46,4.354v5.548a3.061,3.061,0,0,1-3.048,3.066c-.1,0-.194,0-.277-.011a36.149,36.149,0,0,1-15.668-5.564A35.586,35.586,0,0,1,6.85,20.288,35.963,35.963,0,0,1,1.279,4.595,3.056,3.056,0,0,1,4.051,1.279c.091-.008.181-.013.272-.013H9.9a3.066,3.066,0,0,1,3.03,2.62,24.315,24.315,0,0,0,1.328,5.32,3.056,3.056,0,0,1-.686,3.218l-2.346,2.341a.633.633,0,0,0-.1.762,30.161,30.161,0,0,0,11.319,11.3.633.633,0,0,0,.76-.1l2.343-2.338a3.078,3.078,0,0,1,3.231-.687A24.386,24.386,0,0,0,34.1,25.021,3.055,3.055,0,0,1,36.732,28.12Z" fill="#fff"/>
                </g>
              </g>
              <g id="Group_60" data-name="Group 60">
                <g id="Group_59" data-name="Group 59">
                  <path id="Path_67" data-name="Path 67" d="M9.5,2.533H4.324c-.053,0-.106,0-.158.008a1.79,1.79,0,0,0-1.628,1.91,36.179,36.179,0,0,0,1.289,6.5.634.634,0,0,0,.607.452.626.626,0,0,0,.182-.027.633.633,0,0,0,.426-.788A34.854,34.854,0,0,1,3.8,4.328a.5.5,0,0,1,.122-.339.558.558,0,0,1,.4-.189H9.5a.633.633,0,0,0,0-1.267Z" fill="#fff"/>
                </g>
              </g>
              <g id="Group_62" data-name="Group 62">
                <g id="Group_61" data-name="Group 61">
                  <path id="Path_68" data-name="Path 68" d="M34.833,27.867a.634.634,0,0,0-.633.633v5.167a.528.528,0,0,1-.153.377.516.516,0,0,1-.357.156h-.058a34.827,34.827,0,0,1-6.216-1.239.633.633,0,1,0-.364,1.213,36.111,36.111,0,0,0,6.454,1.286c.052.005.158.008.173.008a1.794,1.794,0,0,0,1.787-1.8V28.5A.634.634,0,0,0,34.833,27.867Z" fill="#fff"/>
                </g>
              </g>
            </g>
          </g>
        </g>
      </g>
    </g>
  </g>
</svg>
