<svg id="_001-vitamin" data-name="001-vitamin" xmlns="http://www.w3.org/2000/svg" width="72.169" height="64.84" viewBox="0 0 72.169 64.84">
  <path id="Path_225" data-name="Path 225" d="M4.229,90.84H38.058a7.074,7.074,0,0,0,4.218-1.42,7.047,7.047,0,0,0,4.24,1.42H65.122a7.048,7.048,0,1,0,0-14.1H55.046a7.047,7.047,0,0,0-10.032-9.9l-2.727,2.727V49.962a7.056,7.056,0,0,0-7.048-7.048h-1.41V40.1h4.229a1.41,1.41,0,0,0,1.41-1.41V30.229A4.233,4.233,0,0,0,35.239,26H7.048a4.233,4.233,0,0,0-4.229,4.229v8.457a1.41,1.41,0,0,0,1.41,1.41H8.457v2.819H7.048A7.056,7.056,0,0,0,0,49.962V86.611A4.233,4.233,0,0,0,4.229,90.84Zm-1.41-4.229v-4.23H31.13a7.068,7.068,0,0,0,1.272,5.64H4.229a1.411,1.411,0,0,1-1.41-1.41Zm37.211-10.8,5.98,5.98-4.984,4.984a4.229,4.229,0,0,1-5.98-5.98ZM44.362,87.43l7.867-7.867h3.026v8.457H46.515A4.228,4.228,0,0,1,44.362,87.43ZM69.35,83.792a4.233,4.233,0,0,1-4.229,4.229H58.074V79.563h7.048A4.233,4.233,0,0,1,69.35,83.792ZM47.007,68.838a4.229,4.229,0,0,1,5.98,5.98L48,79.8l-5.98-5.98ZM5.638,30.229a1.411,1.411,0,0,1,1.41-1.41H35.239a1.411,1.411,0,0,1,1.41,1.41v7.048H33.829V33.048a1.41,1.41,0,0,0-2.819,0v4.229H28.191V33.048a1.41,1.41,0,0,0-2.819,0v4.229H22.553V33.048a1.41,1.41,0,0,0-2.819,0v4.229H16.915V33.048a1.41,1.41,0,0,0-2.819,0v4.229H11.276V33.048a1.41,1.41,0,0,0-2.819,0v4.229H5.638ZM11.276,40.1H31.01v2.819H11.276ZM7.048,45.734H35.239a4.233,4.233,0,0,1,4.229,4.229v1.41H27.486a1.41,1.41,0,0,0,0,2.819H39.468v18.2L33.053,78.8a7.1,7.1,0,0,0-.656.758H2.819V54.191H14.8a1.41,1.41,0,1,0,0-2.819H2.819v-1.41a4.233,4.233,0,0,1,4.229-4.229Z" transform="translate(0 -26)" fill="#fff"/>
  <path id="Path_226" data-name="Path 226" d="M80,253.048v5.638a1.41,1.41,0,0,0,1.41,1.41h4.229v4.229a1.41,1.41,0,0,0,1.41,1.41h5.638a1.41,1.41,0,0,0,1.41-1.41V260.1h4.229a1.41,1.41,0,0,0,1.41-1.41v-5.638a1.41,1.41,0,0,0-1.41-1.41H94.1V247.41a1.41,1.41,0,0,0-1.41-1.41H87.048a1.41,1.41,0,0,0-1.41,1.41v4.229H81.41A1.41,1.41,0,0,0,80,253.048Zm2.819,1.41h4.229a1.41,1.41,0,0,0,1.41-1.41v-4.229h2.819v4.229a1.41,1.41,0,0,0,1.41,1.41h4.229v2.819H92.686a1.41,1.41,0,0,0-1.41,1.41v4.229H88.457v-4.229a1.41,1.41,0,0,0-1.41-1.41H82.819Z" transform="translate(-68.724 -214.99)" fill="#fff"/>
  <ellipse id="Ellipse_65" data-name="Ellipse 65" cx="1" cy="1.5" rx="1" ry="1.5" transform="translate(19.581 24.338)" fill="#fff"/>
</svg>
