<svg xmlns="http://www.w3.org/2000/svg" width="50" height="50" viewBox="0 0 50 50">
  <g id="Group_201" data-name="Group 201" transform="translate(0.455)">
    <g id="Group_196" data-name="Group 196" transform="translate(-0.455 0)">
      <rect id="Rectangle_145" data-name="Rectangle 145" width="50" height="50" transform="translate(0 0)" fill="#3da53d"/>
      <path id="_003-youtube" data-name="003-youtube" d="M29.9-2.737a3.825,3.825,0,0,0-2.691-2.691c-2.389-.654-11.946-.654-11.946-.654s-9.557,0-11.946.629A3.9,3.9,0,0,0,.629-2.737,40.3,40.3,0,0,0,0,4.606,40.156,40.156,0,0,0,.629,11.95,3.826,3.826,0,0,0,3.32,14.641c2.414.654,11.946.654,11.946.654s9.557,0,11.946-.629A3.825,3.825,0,0,0,29.9,11.975a40.317,40.317,0,0,0,.629-7.343A38.258,38.258,0,0,0,29.9-2.737ZM12.223,9.184V.029L20.17,4.606Zm0,0" transform="translate(9.904 20.056)" fill="#fff"/>
    </g>
  </g>
</svg>
