<svg xmlns="http://www.w3.org/2000/svg" width="50" height="50" viewBox="0 0 50 50">
  <g id="Group_202" data-name="Group 202" transform="translate(-0.14)">
    <g id="Group_195" data-name="Group 195" transform="translate(0.14 0)">
      <rect id="Rectangle_144" data-name="Rectangle 144" width="50" height="50" fill="#3da53d"/>
      <g id="_001-twitter" data-name="001-twitter" transform="translate(9.501 12.342)">
        <g id="Group_193" data-name="Group 193">
          <path id="Path_235" data-name="Path 235" d="M33.632,51.235a14.375,14.375,0,0,1-3.973,1.089,6.856,6.856,0,0,0,3.033-3.811,13.779,13.779,0,0,1-4.372,1.669A6.894,6.894,0,0,0,16.394,54.9a7.1,7.1,0,0,0,.16,1.572A19.516,19.516,0,0,1,2.342,49.257,6.9,6.9,0,0,0,4.46,58.472a6.809,6.809,0,0,1-3.115-.849V57.7a6.927,6.927,0,0,0,5.524,6.775,6.881,6.881,0,0,1-1.808.227,6.1,6.1,0,0,1-1.305-.118,6.961,6.961,0,0,0,6.443,4.8A13.854,13.854,0,0,1,1.65,72.327,12.914,12.914,0,0,1,0,72.232a19.411,19.411,0,0,0,10.577,3.094c12.688,0,19.624-10.51,19.624-19.62,0-.3-.011-.6-.025-.891A13.755,13.755,0,0,0,33.632,51.235Z" transform="translate(0 -48)" fill="#fff"/>
        </g>
      </g>
    </g>
  </g>
</svg>
