<svg xmlns="http://www.w3.org/2000/svg" xmlns:xlink="http://www.w3.org/1999/xlink" width="96.319" height="95.992" viewBox="0 0 96.319 95.992">
  <defs>
    <linearGradient id="linear-gradient" x1="0.997" y1="0.548" x2="0.003" y2="0.452" gradientUnits="objectBoundingBox">
      <stop offset="0" stop-color="#2c89c9"/>
      <stop offset="1" stop-color="#44a925"/>
    </linearGradient>
    <linearGradient id="linear-gradient-2" x1="0" y1="0.5" x2="1" y2="0.5" xlink:href="#linear-gradient"/>
  </defs>
  <g id="Layer_x0020_1" transform="translate(-0.01 0.02)">
    <g id="_2329621710464" transform="translate(0.01 -0.02)">
      <path id="Path_153" data-name="Path 153" d="M446.184,401.92A39.784,39.784,0,1,1,406.4,441.7,39.784,39.784,0,0,1,446.184,401.92Z" transform="translate(-398.025 -393.636)" fill="none" fill-rule="evenodd"/>
      <g id="Group_142" data-name="Group 142" transform="translate(0 0)">
        <path id="Path_154" data-name="Path 154" d="M39.943,1968.49l.86.105-.019.159a.3.3,0,0,0,.059.213.353.353,0,0,0,.277.135l.256.031.091-.742a1.335,1.335,0,0,1,.382-.762,1.014,1.014,0,0,1,.915-.28,1.263,1.263,0,0,1,.827.426,1.072,1.072,0,0,1,.255.874,1,1,0,0,1-.417.714,1.1,1.1,0,0,1-.81.211l-.6-.074-.068.555a3.8,3.8,0,0,0,.119,1.011c.084.331.356.523.814.58a.984.984,0,0,0,1.012-.427,2.852,2.852,0,0,0,.258-.51,2.245,2.245,0,0,0,.13-.526l.233-1.9a.774.774,0,0,0-.043-.477c-.057-.091-.218-.154-.486-.186l.015-.12,1.872.23-.015.119a.8.8,0,0,0-.494.04c-.084.056-.141.214-.173.476l-.228,1.858a1.869,1.869,0,0,1-.681,1.291,1.83,1.83,0,0,1-1.423.359,1.7,1.7,0,0,1-1.243-.683,1.824,1.824,0,0,1-.293-.616,1.874,1.874,0,0,1-.038-.694l.057-.462-.543-.066a1.357,1.357,0,0,1-.59-.172,1.1,1.1,0,0,1-.223-.217.364.364,0,0,1-.068-.251l.027-.222Zm2.2-.042-.094.769.516.063a.383.383,0,0,0,.387-.2,1.223,1.223,0,0,0,.185-.521,1.586,1.586,0,0,0-.044-.648.411.411,0,0,0-.361-.326.377.377,0,0,0-.4.226,1.507,1.507,0,0,0-.122.3,2.006,2.006,0,0,0-.07.344Zm-6.639-2.541,1.869.435-.027.117a.781.781,0,0,0-.527,0,.5.5,0,0,0-.117.16,1.356,1.356,0,0,0-.1.288l-.441,1.9a3.547,3.547,0,0,0-.1.668,1.53,1.53,0,0,0,.063.519.832.832,0,0,0,.654.6.873.873,0,0,0,.871-.229,1.814,1.814,0,0,0,.293-.454,3.2,3.2,0,0,0,.217-.643l.441-1.9a.706.706,0,0,0-.01-.491.725.725,0,0,0-.476-.244l.027-.117,1.87.434-.027.117a.709.709,0,0,0-.5,0c-.091.052-.165.2-.223.454l-.431,1.854a2.382,2.382,0,0,1-.251.657,1.792,1.792,0,0,1-.419.49,1.573,1.573,0,0,1-1.433.29,1.529,1.529,0,0,1-1.133-.9,2.077,2.077,0,0,1-.087-1.309l.431-1.855a.743.743,0,0,0,0-.506.772.772,0,0,0-.463-.224l.027-.117Zm-5.2-1.634.8.322-.06.15-.016.077a.282.282,0,0,0,.015.135.41.41,0,0,0,.031.052.5.5,0,0,0,.055.061l.13.074,1.751.7.05-.125.052-.131a.256.256,0,0,0,.017-.1.485.485,0,0,0-.087-.29,1.135,1.135,0,0,0-.367-.209l.045-.112,1.727.69-.045.112a.62.62,0,0,0-.451-.057.524.524,0,0,0-.259.325l-.057.143.458.183.261.1.212.121a.382.382,0,0,1,.088.049.788.788,0,0,1,.108.113c.025.041.047.078.062.107s.032.069.05.114a.882.882,0,0,1,.02.186l-.029.073-.085.211-.8-.322.06-.149.035-.087a.309.309,0,0,0-.027-.127.3.3,0,0,0-.093-.114l-.119-.07-.306-.122-.658,1.649a1.553,1.553,0,0,1-2.177.907,1.959,1.959,0,0,1-1.056-.831,1.359,1.359,0,0,1-.013-1.2,1.21,1.21,0,0,1,.832-.747,1.742,1.742,0,0,1,.611-.067,2.192,2.192,0,0,1,.653.158,2.268,2.268,0,0,1,.272.13,1.95,1.95,0,0,1,.256.173,1.026,1.026,0,0,1,.319.423l.336-.842-1.909-.763a3.117,3.117,0,0,1-.4-.188,1.2,1.2,0,0,1-.156-.1.47.47,0,0,1-.1-.1.509.509,0,0,1-.069-.108c-.019-.041-.033-.069-.043-.087a.463.463,0,0,1-.036-.227l.025-.063.084-.211Zm-.025,2.883a1.466,1.466,0,0,0-.106.932,1.025,1.025,0,0,0,1.433.579,1.414,1.414,0,0,0,.57-.726l.127-.316a.715.715,0,0,0-.07-.667,1.315,1.315,0,0,0-.623-.491.9.9,0,0,0-.77.035A1.2,1.2,0,0,0,30.277,1967.155Zm-4.159-5.34a1.055,1.055,0,0,1,.595.1.879.879,0,0,1,.357.3l.13.255.053.161a1.243,1.243,0,0,1,.232-.023,1.714,1.714,0,0,1,.256.018,1.733,1.733,0,0,1,.265.069,2.352,2.352,0,0,1,.3.125,1.6,1.6,0,0,1,.9,1.019,2.063,2.063,0,0,1-.242,1.469l-.845,1.667a1.5,1.5,0,0,0-.112.278.361.361,0,0,0,0,.2c.029.1.156.208.381.322l-.054.107-1.682-.853.054-.107a.677.677,0,0,0,.5.111.728.728,0,0,0,.31-.366l.867-1.709a2.485,2.485,0,0,0,.353-1.228.859.859,0,0,0-.532-.712q-.134-.068-.239-.11a1.757,1.757,0,0,0-.222-.073.9.9,0,0,0-.428-.013c0,.069,0,.132,0,.187a1.233,1.233,0,0,0,.013.134.7.7,0,0,0,.1.3.456.456,0,0,0,.176.171.531.531,0,0,0,.12.044.568.568,0,0,0,.151.011l-.014.129a.889.889,0,0,1-.368.092.957.957,0,0,1-.392-.112.654.654,0,0,1-.174-.124.45.45,0,0,1-.1-.166c-.023-.064-.044-.125-.061-.184a1.747,1.747,0,0,1-.047-.2,2.846,2.846,0,0,0-.284.248,1.482,1.482,0,0,0-.128.176c-.043.068-.088.148-.135.242a.579.579,0,0,0-.061.2.734.734,0,0,0,.009.22,1.059,1.059,0,0,0,.06.217.535.535,0,0,0,.1.165l-.6,1.174a.77.77,0,0,0-.116.464.337.337,0,0,0,.114.164,1.325,1.325,0,0,0,.275.176l-.054.107-1.682-.853.054-.107a.765.765,0,0,0,.48.126c.1-.026.207-.156.323-.383l.845-1.667.043-.084a2.214,2.214,0,0,1,.259-.4,1.619,1.619,0,0,1,.4-.358l-.011-.3a1.269,1.269,0,0,0-.06-.278l-.1-.176-.157-.108-.2-.087c-.012-.01-.013-.036,0-.074a.159.159,0,0,0,.025-.079Zm-4.109-1.569.727.469-.087.134a.3.3,0,0,0-.038.22.342.342,0,0,0,.186.24l1.409.911.379-.586a.784.784,0,0,0,.17-.449c-.012-.107-.13-.233-.357-.38l.065-.1,1.584,1.023-.065.1a.8.8,0,0,0-.462-.18c-.1.014-.221.131-.364.352l-1.016,1.573a3.218,3.218,0,0,1-.5.6,1.7,1.7,0,0,1-.829.4,1.22,1.22,0,0,1-.545-.026,2.151,2.151,0,0,1-.6-.281,1.588,1.588,0,0,1-.788-1.108,2.086,2.086,0,0,1,.4-1.427l.2-.3.571.369-.332.514c-.047.073-.087.141-.12.2a1.562,1.562,0,0,0-.093.215,2.776,2.776,0,0,0-.161.482q-.138.483.444.86a.863.863,0,0,0,.877.088,2.383,2.383,0,0,0,.888-.907l.5-.779L22.4,1961.4c-.082-.053-.149-.1-.2-.137a.714.714,0,0,1-.119-.107.663.663,0,0,1-.106-.106.452.452,0,0,1-.062-.115.742.742,0,0,1-.053-.12.384.384,0,0,1-.019-.132.331.331,0,0,1,.048-.248l.122-.189Zm-3.507-4a1.048,1.048,0,0,1,.563.214.877.877,0,0,1,.291.363l.077.275.02.168a1.312,1.312,0,0,1,.232.023,1.662,1.662,0,0,1,.248.068,1.7,1.7,0,0,1,.247.119,2.429,2.429,0,0,1,.266.181,1.6,1.6,0,0,1,.68,1.176,2.061,2.061,0,0,1-.525,1.393l-1.156,1.469a1.5,1.5,0,0,0-.165.25.362.362,0,0,0-.041.2c.008.1.113.234.311.39l-.074.094-1.482-1.166.074-.094c.2.159.358.228.467.207a.731.731,0,0,0,.376-.3l1.185-1.506a2.486,2.486,0,0,0,.587-1.136.857.857,0,0,0-.382-.8q-.118-.093-.213-.155a1.635,1.635,0,0,0-.2-.116.918.918,0,0,0-.417-.1c-.015.068-.026.13-.033.185a1.234,1.234,0,0,0-.014.134.7.7,0,0,0,.038.309.463.463,0,0,0,.139.2.58.58,0,0,0,.109.066.591.591,0,0,0,.146.041l-.039.123a.877.877,0,0,1-.378.018.955.955,0,0,1-.362-.187.633.633,0,0,1-.147-.154.45.45,0,0,1-.068-.182c-.011-.068-.018-.132-.024-.193a1.742,1.742,0,0,1-.006-.206,2.889,2.889,0,0,0-.327.187,1.5,1.5,0,0,0-.16.148c-.056.058-.115.128-.18.21a.579.579,0,0,0-.1.18.724.724,0,0,0-.034.218,1.054,1.054,0,0,0,.015.224.544.544,0,0,0,.069.183L17.3,1960a.768.768,0,0,0-.2.432.34.34,0,0,0,.08.183,1.368,1.368,0,0,0,.235.226l-.074.094-1.482-1.167.074-.095a.76.76,0,0,0,.446.218c.1-.007.234-.111.391-.312l1.156-1.468.058-.074a2.238,2.238,0,0,1,.334-.345,1.586,1.586,0,0,1,.465-.271l.048-.3a1.265,1.265,0,0,0,0-.284l-.059-.192-.133-.137-.179-.125c-.009-.013-.005-.038.013-.073a.16.16,0,0,0,.04-.072Zm-4.594-2.229a2.121,2.121,0,0,1,1.328-.671,1.347,1.347,0,0,1,.631.131,2.02,2.02,0,0,1,.6.454,1.6,1.6,0,0,1,.5,1.262,2.054,2.054,0,0,1-.719,1.3l-1.664,1.577.376.4.13.137a.92.92,0,0,1,.072.082c.014.02.034.052.059.094a.824.824,0,0,1,.106.258l.019.086a.52.52,0,0,1-.007.177.356.356,0,0,1-.111.226l-.177.168-.6-.629.13-.124a.313.313,0,0,0-.034-.481l-.647-.682,1.911-1.811a2.5,2.5,0,0,0,.743-1.034.859.859,0,0,0-.263-.853.808.808,0,0,0-.869-.292,2.354,2.354,0,0,0-.877.551l-.146.138-.324.307-.467-.494.29-.275Zm-1.786-5.167,1.187,1.508-.094.074a.779.779,0,0,0-.413-.328.49.49,0,0,0-.191.052,1.382,1.382,0,0,0-.256.165l-1.531,1.2a3.556,3.556,0,0,0-.494.461,1.523,1.523,0,0,0-.275.444.83.83,0,0,0,.133.88.873.873,0,0,0,.823.366,1.829,1.829,0,0,0,.512-.172,3.239,3.239,0,0,0,.571-.366l1.531-1.205a.708.708,0,0,0,.3-.39.728.728,0,0,0-.219-.488l.094-.074,1.187,1.508-.094.075c-.154-.2-.284-.3-.39-.311s-.256.057-.457.215l-1.5,1.178a2.4,2.4,0,0,1-.607.356,1.793,1.793,0,0,1-.634.12,1.573,1.573,0,0,1-1.3-.671,1.527,1.527,0,0,1-.322-1.41,2.078,2.078,0,0,1,.751-1.076l1.5-1.177a.744.744,0,0,0,.314-.4.773.773,0,0,0-.221-.465l.094-.074Zm-3.728-1.8.466.73-.146.093a.314.314,0,0,0-.13.183.361.361,0,0,0,.072.294l.438.688,1.673-1.066c.23-.146.338-.293.322-.438a1.054,1.054,0,0,0-.049-.184c-.022-.061-.053-.132-.091-.212l.1-.065,1.014,1.59-.1.064c-.134-.211-.253-.327-.358-.348a.719.719,0,0,0-.477.169l-2.5,1.6a1.469,1.469,0,0,0-.238.182.359.359,0,0,0-.105.172.7.7,0,0,0,.164.471l-.1.064-1.014-1.59.1-.065c.138.216.263.333.374.349a.729.729,0,0,0,.454-.157l.588-.375-.591-.927c-.053-.083-.094-.151-.124-.207a5.284,5.284,0,0,1-.114-.291.415.415,0,0,1-.01-.126.6.6,0,0,1,0-.134.517.517,0,0,1,.038-.128.336.336,0,0,1,.144-.2l.2-.129Zm-2.113-5.78.389.774-.143.072a.3.3,0,0,0-.144.167.354.354,0,0,0,.04.305l.116.23.668-.336a1.34,1.34,0,0,1,.846-.1,1.015,1.015,0,0,1,.74.606,1.267,1.267,0,0,1,.1.925,1.071,1.071,0,0,1-.586.7,1,1,0,0,1-.826.05,1.1,1.1,0,0,1-.625-.557l-.273-.543-.5.252a3.8,3.8,0,0,0-.776.66.831.831,0,0,0-.031,1,.984.984,0,0,0,.917.605,2.808,2.808,0,0,0,.568-.068,2.247,2.247,0,0,0,.51-.183l1.712-.861a.778.778,0,0,0,.372-.3c.044-.1.006-.267-.115-.508l.107-.054.847,1.685-.107.054a.8.8,0,0,0-.307-.389c-.093-.039-.257,0-.492.12l-1.672.841a1.867,1.867,0,0,1-1.452.149,1.829,1.829,0,0,1-1.088-.984,1.7,1.7,0,0,1-.121-1.414,1.826,1.826,0,0,1,.35-.585,1.874,1.874,0,0,1,.556-.416l.416-.209-.246-.489a1.351,1.351,0,0,1-.184-.586,1.094,1.094,0,0,1,.056-.306.363.363,0,0,1,.171-.2l.2-.1Zm1.256,1.808-.693.348.234.464a.383.383,0,0,0,.383.21,1.22,1.22,0,0,0,.536-.135,1.588,1.588,0,0,0,.516-.4.411.411,0,0,0,.072-.481.377.377,0,0,0-.409-.205,1.465,1.465,0,0,0-.313.062,2.047,2.047,0,0,0-.325.132Zm-2.524-5.854a1.4,1.4,0,0,1,1.2.076,1.567,1.567,0,0,1,.472.429,2.516,2.516,0,0,1,.342.671,1.782,1.782,0,0,1-.01,1.438,1.661,1.661,0,0,1-.974.824l-.25-.717a2.547,2.547,0,0,0,.543-.256,1.51,1.51,0,0,0,.376-.344.892.892,0,0,0,.122-.891,1.1,1.1,0,0,0-.58-.636,1.213,1.213,0,0,0-.965-.028.936.936,0,0,0-.632.627,1.523,1.523,0,0,0,.039.969l.322.925.31-.043.234.673-.806.118-.232-.666.2-.029-.3-.869a1.132,1.132,0,0,0-.377-.568.686.686,0,0,0-.655-.061.927.927,0,0,0-.563.389.611.611,0,0,0-.032.291,1.382,1.382,0,0,0,.07.364,1,1,0,0,0,.138.278.682.682,0,0,0,.09.081c.037.029.085.061.141.1a.961.961,0,0,0,.783-.025l.219.63a.953.953,0,0,1-.939-.162,2.457,2.457,0,0,1-.36-.361,1.632,1.632,0,0,1-.125-.213,2.338,2.338,0,0,1-.113-.269,3.315,3.315,0,0,1-.1-.331,1.769,1.769,0,0,1-.047-.3.936.936,0,0,1,.062-.5.976.976,0,0,1,.6-.54.75.75,0,0,1,.682.066,2.1,2.1,0,0,1,.383.4l.007-.016a1.911,1.911,0,0,1,.064-.875.959.959,0,0,1,.658-.648Zm.111-5.368a1.052,1.052,0,0,1,.3.52.873.873,0,0,1,0,.465l-.113.264-.09.143a1.3,1.3,0,0,1,.167.163,1.745,1.745,0,0,1,.15.208,1.687,1.687,0,0,1,.118.247,2.352,2.352,0,0,1,.094.308,1.6,1.6,0,0,1-.207,1.343,2.064,2.064,0,0,1-1.282.757l-1.821.42a1.51,1.51,0,0,0-.285.092.365.365,0,0,0-.155.127.7.7,0,0,0,0,.5l-.117.027L1.46,1935.6l.117-.027c.058.25.136.4.235.454a.728.728,0,0,0,.479,0l1.867-.431a2.485,2.485,0,0,0,1.169-.517.857.857,0,0,0,.205-.865c-.022-.1-.046-.182-.069-.254a1.654,1.654,0,0,0-.087-.218.908.908,0,0,0-.265-.337c-.054.043-.1.084-.141.123-.015.013-.047.044-.1.1a.7.7,0,0,0-.163.265.461.461,0,0,0-.019.245.561.561,0,0,0,.044.12.592.592,0,0,0,.088.123l-.108.072a.876.876,0,0,1-.306-.223.958.958,0,0,1-.166-.372.646.646,0,0,1-.017-.213.447.447,0,0,1,.061-.185c.034-.059.068-.114.1-.165a1.681,1.681,0,0,1,.124-.165,2.722,2.722,0,0,0-.372-.058,1.391,1.391,0,0,0-.218.015,2.722,2.722,0,0,0-.272.051.57.57,0,0,0-.189.079.74.74,0,0,0-.163.148,1.094,1.094,0,0,0-.129.185.547.547,0,0,0-.061.185l-1.283.3a.769.769,0,0,0-.43.209.34.34,0,0,0-.053.193,1.338,1.338,0,0,0,.041.323l-.117.027-.424-1.838.117-.027a.766.766,0,0,0,.211.449.692.692,0,0,0,.5,0l1.82-.42.092-.021a2.23,2.23,0,0,1,.476-.06,1.585,1.585,0,0,1,.533.08l.225-.2a1.293,1.293,0,0,0,.175-.224l.074-.187-.018-.19-.062-.209c0-.016.02-.033.056-.049a.161.161,0,0,0,.076-.031ZM2.7,1927.353a2.117,2.117,0,0,1,1.466.25,1.341,1.341,0,0,1,.43.48,2.023,2.023,0,0,1,.215.723,1.606,1.606,0,0,1-.345,1.315,2.053,2.053,0,0,1-1.352.619l-2.276.279.067.542.023.188a.845.845,0,0,1,.009.109c0,.024,0,.062-.009.11a.825.825,0,0,1-.069.271l-.036.081a.5.5,0,0,1-.111.137.351.351,0,0,1-.223.116l-.243.03-.105-.861.178-.021a.363.363,0,0,0,.2-.106.358.358,0,0,0,.062-.3l-.114-.933,2.613-.32a2.5,2.5,0,0,0,1.212-.39.859.859,0,0,0,.3-.842.807.807,0,0,0-.525-.751A2.351,2.351,0,0,0,3.029,1928l-.2.025-.443.054L2.3,1927.4l.4-.049Zm1.86-7.522a1.048,1.048,0,0,1,.163.58.872.872,0,0,1-.118.449l-.176.226-.124.117a1.313,1.313,0,0,1,.12.2,1.447,1.447,0,0,1,.144.509,2.322,2.322,0,0,1,.013.322,1.6,1.6,0,0,1-.541,1.246,2.062,2.062,0,0,1-1.432.406l-1.869-.056a1.44,1.44,0,0,0-.3.016.362.362,0,0,0-.183.084.7.7,0,0,0-.129.481l-.12,0,.056-1.885.12,0a.673.673,0,0,0,.112.5.727.727,0,0,0,.463.126l1.915.057a2.49,2.49,0,0,0,1.262-.2.858.858,0,0,0,.418-.784c0-.1,0-.188,0-.264a1.682,1.682,0,0,0-.029-.232.911.911,0,0,0-.17-.393c-.063.028-.12.056-.168.083a1.219,1.219,0,0,0-.117.069.69.69,0,0,0-.225.215.458.458,0,0,0-.08.231.555.555,0,0,0,.012.127.567.567,0,0,0,.054.141l-.123.042a.874.874,0,0,1-.239-.294.954.954,0,0,1-.066-.4.632.632,0,0,1,.038-.21.445.445,0,0,1,.106-.164c.048-.049.1-.093.141-.134a1.781,1.781,0,0,1,.162-.127,2.855,2.855,0,0,0-.344-.152,1.539,1.539,0,0,0-.214-.041c-.08-.01-.172-.016-.276-.02a.575.575,0,0,0-.2.029.707.707,0,0,0-.2.1,1.037,1.037,0,0,0-.171.146.547.547,0,0,0-.106.163L.822,1921.1a.768.768,0,0,0-.469.093.339.339,0,0,0-.1.173,1.34,1.34,0,0,0-.042.323l-.12,0,.056-1.885.12,0a.762.762,0,0,0,.09.488.688.688,0,0,0,.484.129l1.867.056.094,0a2.243,2.243,0,0,1,.476.063,1.592,1.592,0,0,1,.495.213l.269-.139a1.315,1.315,0,0,0,.226-.172l.12-.162.031-.188-.007-.218c0-.016.027-.027.067-.034a.155.155,0,0,0,.081-.011Zm-2.266-4.441a1.617,1.617,0,0,1,.322.077,3.007,3.007,0,0,1,.383.163,3.111,3.111,0,0,1,.432.261,2.325,2.325,0,0,1,.35.312,3.293,3.293,0,0,1,.8,1.5l.129-.892a1.9,1.9,0,0,1,.2-.688.629.629,0,0,1,.416-.337l.134,0,.34.042-.093.761-.258-.031-.127,0a.362.362,0,0,0-.241.151.91.91,0,0,0-.069.167,1.117,1.117,0,0,0-.042.2l-.2,1.674.668.082-.086.7-1.521-.186.086-.7.562.069a1.593,1.593,0,0,0-.037-.529,2.209,2.209,0,0,0-.087-.3,2.153,2.153,0,0,0-.146-.31,4.766,4.766,0,0,0-.356-.555,2.013,2.013,0,0,0-.193-.214,1.857,1.857,0,0,0-.2-.169.527.527,0,0,1,.07.132,1.66,1.66,0,0,1,.063.205,1.4,1.4,0,0,1,.023.481,1.983,1.983,0,0,1-.538,1.2,1.472,1.472,0,0,1-1.3.405,1.43,1.43,0,0,1-1.093-.74,2.06,2.06,0,0,1-.241-1.292,1.981,1.981,0,0,1,.587-1.228,1.488,1.488,0,0,1,1.27-.409Zm-.064.717a1.651,1.651,0,0,0-1.091.173,1.006,1.006,0,0,0-.476.775,1.077,1.077,0,0,0,.233.847,1.363,1.363,0,0,0,.948.474,1.416,1.416,0,0,0,1.1-.229,1.142,1.142,0,0,0,.394-.791,1.3,1.3,0,0,0-.027-.465.837.837,0,0,0-.223-.4,1.162,1.162,0,0,0-.353-.238,1.638,1.638,0,0,0-.5-.143Z" transform="translate(-0.01 -1875.9)" fill="#006b3e"/>
        <path id="Path_155" data-name="Path 155" d="M65.216,34.255l-.234.834-.154-.043a.267.267,0,0,0-.186.007.328.328,0,0,0-.127.1.545.545,0,0,0-.062.147l-.084.3.753.211c.07.019.116.031.14.035a.78.78,0,0,0,.093,0,.481.481,0,0,0,.178-.062c.021-.017.043-.038.068-.062a.839.839,0,0,0,.068-.073.861.861,0,0,0,.05-.109,1.344,1.344,0,0,0,.046-.134l.116.032-.5,1.8L65.26,37.2a.872.872,0,0,0,.036-.5q-.059-.159-.377-.248l-.735-.207-.254.9A1.909,1.909,0,0,1,63.1,38.36a1.4,1.4,0,0,1-1.117.136,1.5,1.5,0,0,1-.929-.711,1.536,1.536,0,0,1-.2-.645,2.12,2.12,0,0,1,.084-.751,1.608,1.608,0,0,1,.8-1.07,1.587,1.587,0,0,1,.643-.166,2.376,2.376,0,0,1,.762.1l.943.265.13-.464a3.152,3.152,0,0,1,.143-.415.612.612,0,0,1,.176-.275.643.643,0,0,1,.21-.137.316.316,0,0,1,.25-.031l.219.062ZM63.9,36.17l-1.259-.354a1.544,1.544,0,0,0-.845-.024.9.9,0,0,0-.412.234.971.971,0,0,0-.235.423.941.941,0,0,0,.136.852,1.6,1.6,0,0,0,.888.53,1.259,1.259,0,0,0,.934-.049,1.067,1.067,0,0,0,.538-.708l.254-.9Zm3.9-6a1.052,1.052,0,0,1-.046.6.88.88,0,0,1-.265.382l-.243.152-.156.067a1.285,1.285,0,0,1,.044.229,1.739,1.739,0,0,1,.005.257,1.7,1.7,0,0,1-.045.27,2.313,2.313,0,0,1-.1.306,1.6,1.6,0,0,1-.935.985,2.062,2.062,0,0,1-1.485-.11l-1.736-.693a1.49,1.49,0,0,0-.287-.087.359.359,0,0,0-.2.016c-.1.038-.193.174-.286.408l-.112-.045.7-1.751.111.045a.676.676,0,0,0-.066.507.727.727,0,0,0,.392.276l1.779.711a2.49,2.49,0,0,0,1.255.242.857.857,0,0,0,.662-.593q.056-.139.088-.248a1.7,1.7,0,0,0,.053-.228.908.908,0,0,0-.025-.427c-.069,0-.131.012-.186.02a1.238,1.238,0,0,0-.133.025.7.7,0,0,0-.285.124.459.459,0,0,0-.155.19.567.567,0,0,0-.033.123.594.594,0,0,0,0,.151l-.129,0a.878.878,0,0,1-.124-.358.951.951,0,0,1,.076-.4.636.636,0,0,1,.107-.184.449.449,0,0,1,.156-.117c.062-.029.121-.055.178-.077a1.7,1.7,0,0,1,.2-.064,2.834,2.834,0,0,0-.272-.26,1.5,1.5,0,0,0-.187-.112c-.071-.037-.156-.074-.253-.113a.577.577,0,0,0-.2-.043.727.727,0,0,0-.218.029,1.061,1.061,0,0,0-.211.079.54.54,0,0,0-.156.117l-1.222-.488a.767.767,0,0,0-.473-.074.337.337,0,0,0-.153.128,1.326,1.326,0,0,0-.15.289l-.111-.045.7-1.751.111.045a.764.764,0,0,0-.083.489c.035.1.173.192.41.287l1.735.693.088.035a2.226,2.226,0,0,1,.425.223,1.586,1.586,0,0,1,.392.37l.3-.038a1.278,1.278,0,0,0,.272-.084l.168-.111.094-.166.068-.207c.01-.013.035-.016.074-.009a.16.16,0,0,0,.08.018Zm.552-4.229a1.4,1.4,0,0,1,.777.916,1.568,1.568,0,0,1,.018.638,2.516,2.516,0,0,1-.246.712,1.783,1.783,0,0,1-1.043.991,1.66,1.66,0,0,1-1.269-.13l.344-.678a2.5,2.5,0,0,0,.562.214,1.512,1.512,0,0,0,.508.032.892.892,0,0,0,.726-.53,1.1,1.1,0,0,0,.055-.859,1.21,1.21,0,0,0-.649-.714.935.935,0,0,0-.89-.02,1.523,1.523,0,0,0-.671.7l-.443.874.246.193-.323.636-.644-.5.319-.629.161.125.416-.82a1.132,1.132,0,0,0,.148-.665.687.687,0,0,0-.41-.514.929.929,0,0,0-.671-.136.614.614,0,0,0-.231.179,1.393,1.393,0,0,0-.213.3,1,1,0,0,0-.1.293.71.71,0,0,0,0,.121c0,.047.015.1.028.168q.077.3.561.547l-.3.594a.953.953,0,0,1-.534-.789,2.431,2.431,0,0,1,.01-.509,1.577,1.577,0,0,1,.067-.237,2.3,2.3,0,0,1,.116-.268,3.4,3.4,0,0,1,.171-.3,1.753,1.753,0,0,1,.184-.243.943.943,0,0,1,.4-.3.975.975,0,0,1,.805.058.752.752,0,0,1,.425.537,2.091,2.091,0,0,1-.021.551l.017-.006a1.917,1.917,0,0,1,.674-.561.958.958,0,0,1,.923.025ZM71,22.294l-.369.571-.514-.332c-.073-.047-.141-.087-.2-.12a1.589,1.589,0,0,0-.215-.093,2.784,2.784,0,0,0-.482-.161q-.484-.138-.86.444t-.176.917a1.913,1.913,0,0,0,.631.613l1.05.679a.691.691,0,0,0,.437.141c.125-.015.254-.124.387-.331l.1.065-1.024,1.584-.1-.065a.8.8,0,0,0,.179-.462c-.013-.1-.132-.222-.353-.365L66.986,23.76a1.469,1.469,0,0,0-.265-.141.359.359,0,0,0-.2-.023c-.1.018-.223.134-.36.346l-.1-.065,1.024-1.584.1.065a.617.617,0,0,0-.133.479.655.655,0,0,0,.3.353l.487.315a2.081,2.081,0,0,1,.078-.493,1.942,1.942,0,0,1,.246-.525,1.588,1.588,0,0,1,1.108-.788,2.086,2.086,0,0,1,1.427.4l.3.2Zm2.571-4.453a2.122,2.122,0,0,1,.856,1.217,1.342,1.342,0,0,1-.037.644,2.03,2.03,0,0,1-.362.662,1.607,1.607,0,0,1-1.176.682,2.053,2.053,0,0,1-1.392-.523l-1.8-1.418-.338.429-.117.148a.938.938,0,0,1-.071.083c-.018.017-.047.041-.085.072a.819.819,0,0,1-.24.142l-.083.031a.521.521,0,0,1-.176.019.355.355,0,0,1-.239-.077l-.192-.151.536-.681.141.111a.314.314,0,0,0,.472-.1l.581-.738,2.068,1.628a2.5,2.5,0,0,0,1.131.585.86.86,0,0,0,.805-.384.808.808,0,0,0,.163-.9,2.356,2.356,0,0,0-.672-.788L73.19,18.4l-.351-.276.42-.534.314.247Zm6.2-3.5-1.369,1.3-.083-.087a.646.646,0,0,0,.246-.428.665.665,0,0,0-.213-.419l-.4-.421a2.677,2.677,0,0,1-.194.467c-.013.02-.039.059-.078.114s-.065.09-.074.1a2.2,2.2,0,0,1-.213.229,1.584,1.584,0,0,1-1.257.5,2.077,2.077,0,0,1-1.3-.726l-.529-.558a.661.661,0,0,0-.4-.238.62.62,0,0,0-.442.221l-.083-.087,1.369-1.3.082.087q-.272.258-.279.413c-.01.1.074.245.253.433l.1.123.183.192.234.247.175.185a3.158,3.158,0,0,0,.353.316c.06.044.127.088.2.134a2.539,2.539,0,0,0,.234.127c.293.161.607.085.94-.232a1.339,1.339,0,0,0,.448-.682.782.782,0,0,0-.277-.656l-.133-.14a.661.661,0,0,0-.4-.236.387.387,0,0,0-.207.045,1,1,0,0,0-.243.178l-.083-.087,1.369-1.3.083.087a.78.78,0,0,0-.281.414c-.006.1.08.246.257.433l1.076,1.136c.17.179.308.27.413.273a.723.723,0,0,0,.432-.253l.083.087Zm2.247-4.378-.7.5-.1-.141a.325.325,0,0,0-.187-.119.356.356,0,0,0-.3.088l-1.364.977.539.752a2.481,2.481,0,0,0,.926.878.858.858,0,0,0,.877-.143.764.764,0,0,0,.4-.753,2.8,2.8,0,0,0-.245-.769l-.178-.249.553-.4a1.89,1.89,0,0,1,.293.6,1.549,1.549,0,0,1-.7,1.754,1.6,1.6,0,0,1-1.319.326,2.063,2.063,0,0,1-1.191-.893l-1.089-1.52a1.492,1.492,0,0,0-.195-.228.361.361,0,0,0-.177-.095.7.7,0,0,0-.461.19l-.07-.1,1.533-1.1.07.1c-.209.149-.318.28-.328.392a.728.728,0,0,0,.182.445l.406.567,1.6-1.144c.08-.057.146-.1.2-.135a.641.641,0,0,1,.146-.069.533.533,0,0,1,.265-.078.614.614,0,0,1,.133,0,.47.47,0,0,1,.13.031.326.326,0,0,1,.211.133l.14.195Zm4.624-2.331a2.121,2.121,0,0,1,.347,1.446,1.343,1.343,0,0,1-.272.584,2.025,2.025,0,0,1-.581.482,1.6,1.6,0,0,1-1.344.2,2.054,2.054,0,0,1-1.1-1L82.543,7.358l-.473.274-.163.095a.881.881,0,0,1-.1.051c-.023.009-.058.021-.105.035a.827.827,0,0,1-.276.043h-.088a.516.516,0,0,1-.17-.048.354.354,0,0,1-.194-.16l-.123-.211L81.6,7l.09.155a.314.314,0,0,0,.476.078l.813-.472,1.322,2.276a2.493,2.493,0,0,0,.836.961.86.86,0,0,0,.89-.06.808.808,0,0,0,.484-.778,2.348,2.348,0,0,0-.334-.98l-.1-.174-.224-.386.588-.342.2.346Zm4.141-1.079a1.023,1.023,0,0,1-.078.893,1.764,1.764,0,0,1-.893.822,2,2,0,0,1-1.46.152,1.377,1.377,0,0,1-.844-.777l.632-.286a1.4,1.4,0,0,0,.633.7,1.111,1.111,0,0,0,1.445-.452.671.671,0,0,0,.022-.623.893.893,0,0,0-.331-.392,1.108,1.108,0,0,0-.553-.141l-1.5-.02a1.089,1.089,0,0,1-.582-.174,1.053,1.053,0,0,1-.391-.462.945.945,0,0,1,.1-.907,1.856,1.856,0,0,1,.869-.753,1.574,1.574,0,0,1,1.226-.085,1.318,1.318,0,0,1,.44.265,1.29,1.29,0,0,1,.293.417l-.6.269a1.455,1.455,0,0,0-.551-.683A.759.759,0,0,0,87.93,4.3a.993.993,0,0,0-.516.459.637.637,0,0,0-.064.307.929.929,0,0,0,.089.35.48.48,0,0,0,.255.256.989.989,0,0,0,.4.07l1.322,0a1.781,1.781,0,0,1,.769.128,1.3,1.3,0,0,1,.6.671Zm3.771-2.556-.642.223-.2-.578c-.028-.082-.057-.155-.087-.22a1.568,1.568,0,0,0-.113-.205,2.781,2.781,0,0,0-.281-.423q-.3-.407-.951-.178a.862.862,0,0,0-.608.639,2.4,2.4,0,0,0,.171,1.262l.631,1.813a.692.692,0,0,0,.258.378.621.621,0,0,0,.508-.023l.04.113-1.781.62L91.461,7.3a.793.793,0,0,0,.425-.254q.076-.131-.054-.5l-.615-1.767a3.212,3.212,0,0,1-.162-.762,1.7,1.7,0,0,1,.2-.9,1.221,1.221,0,0,1,.356-.414,2.125,2.125,0,0,1,.593-.3,1.587,1.587,0,0,1,1.358.06,2.084,2.084,0,0,1,.88,1.192l.119.341Zm5.548.952-1.87.432-.027-.117a.777.777,0,0,0,.473-.234.5.5,0,0,0,.035-.195,1.342,1.342,0,0,0-.04-.3l-.438-1.9a3.583,3.583,0,0,0-.205-.643,1.529,1.529,0,0,0-.285-.438.831.831,0,0,0-.853-.254.871.871,0,0,0-.682.588,1.812,1.812,0,0,0-.063.537,3.191,3.191,0,0,0,.088.673l.438,1.9a.707.707,0,0,0,.225.437.728.728,0,0,0,.535.01l.027.117-1.87.432-.027-.117a.707.707,0,0,0,.447-.221.711.711,0,0,0,0-.505l-.428-1.855a2.373,2.373,0,0,1-.064-.7,1.8,1.8,0,0,1,.161-.624,1.573,1.573,0,0,1,1.16-.89,1.528,1.528,0,0,1,1.413.31,2.072,2.072,0,0,1,.653,1.137l.428,1.855a.744.744,0,0,0,.225.453.773.773,0,0,0,.515,0l.027.117Zm4.59-2.406A2.119,2.119,0,0,1,104.446,4a1.344,1.344,0,0,1-.48.43,2.025,2.025,0,0,1-.723.215,1.605,1.605,0,0,1-1.314-.345,2.053,2.053,0,0,1-.619-1.352L101.031.677l-.542.067L100.3.766a.879.879,0,0,1-.109.009c-.025,0-.062,0-.111-.009A.823.823,0,0,1,99.811.7l-.08-.036a.509.509,0,0,1-.138-.111.354.354,0,0,1-.116-.223l-.03-.243.86-.105.022.178a.359.359,0,0,0,.106.2.357.357,0,0,0,.3.062L101.67.3l.32,2.613a2.5,2.5,0,0,0,.39,1.212.859.859,0,0,0,.842.3.808.808,0,0,0,.751-.525,2.353,2.353,0,0,0,.078-1.032l-.025-.2-.054-.443.675-.083.049.4Z" transform="translate(-59.59 0.02)" fill="#006b3e"/>
        <path id="Path_156" data-name="Path 156" d="M2630.108,13.63l1.189.221,2.088,3.789.466-2.537a.885.885,0,0,0,0-.523.485.485,0,0,0-.355-.206l-.153-.028.022-.12,1.535.282-.022.12-.156-.029a.463.463,0,0,0-.428.1.454.454,0,0,0-.083.161,2,2,0,0,0-.076.3l-.679,3.711-.115-.021-2.253-4.075-.5,2.707a.925.925,0,0,0-.005.522.5.5,0,0,0,.356.206l.156.029-.022.12-1.535-.282.022-.12.152.028a.459.459,0,0,0,.431-.1.446.446,0,0,0,.083-.161,1.96,1.96,0,0,0,.077-.3l.561-3.061a1.784,1.784,0,0,0-.23-.342,1.218,1.218,0,0,0-.271-.193,1.075,1.075,0,0,0-.279-.081Zm7.446,4.763-1.671-.469-.478.6a1.1,1.1,0,0,0-.216.343.234.234,0,0,0,.043.2.445.445,0,0,0,.135.114,1.113,1.113,0,0,0,.244.1l-.033.117-1.356-.381.033-.117a.806.806,0,0,0,.384-.027,2.083,2.083,0,0,0,.532-.518l2.511-3.117.111.031.493,4a1.716,1.716,0,0,0,.169.655.658.658,0,0,0,.152.156.718.718,0,0,0,.22.1l-.033.117-1.7-.478.033-.117a.86.86,0,0,0,.218.037.373.373,0,0,0,.154-.025.23.23,0,0,0,.142-.153,1.442,1.442,0,0,0,0-.478l-.092-.694Zm-.025-.26-.241-1.944-1.238,1.528Zm5.894-.661-.343.991-.116-.047a1.152,1.152,0,0,0,.054-.4.656.656,0,0,0-.152-.361.958.958,0,0,0-.379-.25l-.586-.234-1.267,3.171a.932.932,0,0,0-.108.511.5.5,0,0,0,.307.272l.143.057-.045.113-1.763-.7.044-.113.148.059a.462.462,0,0,0,.438-.009.45.45,0,0,0,.114-.141,2.085,2.085,0,0,0,.133-.279l1.266-3.171-.5-.2a1.473,1.473,0,0,0-.431-.122.621.621,0,0,0-.362.113,1.038,1.038,0,0,0-.312.391l-.117-.047.438-.953,3.394,1.355Zm.446,5.1-.055.109-1.712-.868.056-.109.142.072a.484.484,0,0,0,.433.038,1,1,0,0,0,.3-.417l1.306-2.577a1.472,1.472,0,0,0,.165-.42.294.294,0,0,0-.057-.188.621.621,0,0,0-.236-.208l-.141-.072.056-.108,1.711.868-.055.108-.144-.073a.475.475,0,0,0-.428-.036.971.971,0,0,0-.3.416l-1.307,2.577a1.5,1.5,0,0,0-.165.42.312.312,0,0,0,.059.189.589.589,0,0,0,.232.206Zm4.526-2.568a2.032,2.032,0,0,1,.974,1.326,2.273,2.273,0,0,1-.271,1.75,2.352,2.352,0,0,1-1.4,1.144,2.147,2.147,0,0,1-2.7-1.539,2.348,2.348,0,0,1,.3-1.786,2.272,2.272,0,0,1,1.5-1.143,2.143,2.143,0,0,1,1.6.248Zm-.176.179a1.185,1.185,0,0,0-1.054-.1,2.522,2.522,0,0,0-1.2,1.178,2.651,2.651,0,0,0-.436,1.691,1.157,1.157,0,0,0,.6.862,1.294,1.294,0,0,0,1.145.094,2.389,2.389,0,0,0,1.129-1.135,2.7,2.7,0,0,0,.463-1.706,1.214,1.214,0,0,0-.643-.889Zm2.663,1.455.948.751.078,4.325,1.6-2.026a.886.886,0,0,0,.246-.461.486.486,0,0,0-.219-.349l-.122-.1.075-.1,1.227.966-.076.1-.125-.1a.462.462,0,0,0-.423-.115.442.442,0,0,0-.148.1,2.021,2.021,0,0,0-.208.23l-2.333,2.964-.091-.072-.091-4.656-1.7,2.163a.924.924,0,0,0-.249.459.5.5,0,0,0,.219.349l.124.1-.075.1-1.226-.965.075-.1.123.1a.373.373,0,0,0,.574.013,1.9,1.9,0,0,0,.207-.23l1.925-2.445a1.844,1.844,0,0,0-.044-.41,1.237,1.237,0,0,0-.149-.3,1.07,1.07,0,0,0-.209-.2l.075-.1Zm4.428,7.621-1.254-1.2-.7.308a1.1,1.1,0,0,0-.352.2.233.233,0,0,0-.057.2.457.457,0,0,0,.066.164,1.1,1.1,0,0,0,.171.2l-.084.088-1.018-.974.085-.088a.807.807,0,0,0,.351.157,2.078,2.078,0,0,0,.714-.207l3.683-1.57.083.079-1.448,3.764a1.726,1.726,0,0,0-.158.657.659.659,0,0,0,.061.21.716.716,0,0,0,.146.194l-.084.088-1.276-1.221.084-.088a.869.869,0,0,0,.175.135.378.378,0,0,0,.147.05.229.229,0,0,0,.2-.068,1.444,1.444,0,0,0,.228-.421l.245-.655Zm.1-.241.7-1.828-1.812.766Zm3.59,4.712.054.1-1.167.507-2.273-2.614.092-.08.111.127a.45.45,0,0,0,.406.185,1.072,1.072,0,0,0,.413-.269l2.179-1.894c.21-.183.323-.322.335-.414a.482.482,0,0,0-.14-.384l-.11-.127.092-.08,1.33,1.53-.091.08a1.317,1.317,0,0,0-.38-.336.446.446,0,0,0-.26-.033,1.5,1.5,0,0,0-.415.291l-2.121,1.844a.933.933,0,0,0-.25.287.234.234,0,0,0,0,.162,2.215,2.215,0,0,0,.311.407l.215.246a2.4,2.4,0,0,0,.532.5.923.923,0,0,0,.444.105,2.262,2.262,0,0,0,.69-.139Zm6.137,3.136-1.225.9-.055-.087a1.9,1.9,0,0,0,.513-1.018,1.421,1.421,0,0,0-.236-.932,1.483,1.483,0,0,0-.62-.556,1.5,1.5,0,0,0-.914-.091,3.664,3.664,0,0,0-1.6.829,2.085,2.085,0,0,0-.33.387,1.452,1.452,0,0,0-.26.862,1.684,1.684,0,0,0,.28.881,1.55,1.55,0,0,0,.57.55,2.542,2.542,0,0,0,1.019.219v.122a2.369,2.369,0,0,1-1.158-.192,1.98,1.98,0,0,1-.809-.751,2.027,2.027,0,0,1-.231-1.9,2.365,2.365,0,0,1,.974-1.161,2.567,2.567,0,0,1,1.194-.408,2.167,2.167,0,0,1,1.177.231,2.236,2.236,0,0,1,.882.8,2.114,2.114,0,0,1,.314.935.557.557,0,0,0,.046.206.218.218,0,0,0,.135.1.542.542,0,0,0,.275-.03l.062.1Zm.8,2.188-1.581.8.441.876a.8.8,0,0,0,.332.4.54.54,0,0,0,.253.03.911.911,0,0,0,.31-.1l.054.109-1.394.7-.055-.109a1.655,1.655,0,0,0,.335-.272.415.415,0,0,0,.074-.256,1,1,0,0,0-.127-.4l-.44-.876-1.315.661a1.422,1.422,0,0,0-.312.184.215.215,0,0,0-.048.128.558.558,0,0,0,.079.243l.341.677a2.054,2.054,0,0,0,.29.465.853.853,0,0,0,.338.2,2.545,2.545,0,0,0,.739.1l.06.118-1.175.16-1.55-3.081.109-.055.071.142a.609.609,0,0,0,.2.235.276.276,0,0,0,.2.057,1.519,1.519,0,0,0,.4-.16l2.6-1.306c.255-.129.4-.232.43-.312a.522.522,0,0,0-.061-.414l-.072-.142.109-.055,1.549,3.081-.853.484-.058-.115a1.422,1.422,0,0,0,.365-.356.554.554,0,0,0,.07-.311,1.5,1.5,0,0,0-.165-.438l-.55-1.095Zm1.594,2.619.435,1.129-2.132,3.764,2.4-.934c.256-.1.406-.19.446-.272a.489.489,0,0,0-.01-.411l-.057-.145.114-.044.564,1.455-.113.044-.058-.148a.46.46,0,0,0-.3-.314.452.452,0,0,0-.181.013,1.974,1.974,0,0,0-.295.093l-3.516,1.367-.042-.108,2.287-4.056-2.565,1a.918.918,0,0,0-.448.269.5.5,0,0,0,.011.411l.058.148-.114.044-.566-1.455.114-.044.057.145a.46.46,0,0,0,.306.317.452.452,0,0,0,.181-.014,1.947,1.947,0,0,0,.295-.093l2.9-1.127a1.822,1.822,0,0,0,.17-.376A1.215,1.215,0,0,0,2667.5,42a1.084,1.084,0,0,0-.077-.28l.113-.044Zm2.967,8.817-.994.331-.034-.12a1.161,1.161,0,0,0,.352-.2.653.653,0,0,0,.194-.34.944.944,0,0,0-.033-.453l-.17-.607-3.287.924a.922.922,0,0,0-.472.225.493.493,0,0,0-.03.408l.042.148-.117.033-.513-1.828.116-.033.043.153a.461.461,0,0,0,.274.342.45.45,0,0,0,.181,0,1.963,1.963,0,0,0,.3-.064l3.287-.923-.146-.518a1.464,1.464,0,0,0-.165-.416.617.617,0,0,0-.31-.218,1.039,1.039,0,0,0-.5-.011l-.034-.12,1.023-.232.989,3.518Zm.131,2.056-1.742.319.176.965a.808.808,0,0,0,.206.481.542.542,0,0,0,.235.1.909.909,0,0,0,.325-.008l.022.12-1.535.282-.022-.12a1.677,1.677,0,0,0,.4-.167.413.413,0,0,0,.144-.225.993.993,0,0,0-.01-.418l-.177-.965-1.448.265a1.442,1.442,0,0,0-.351.09.222.222,0,0,0-.082.109.555.555,0,0,0,.008.255l.136.745a2.141,2.141,0,0,0,.148.528.856.856,0,0,0,.268.29,2.551,2.551,0,0,0,.682.3l.024.13-1.172-.176-.622-3.392.12-.022.029.156a.611.611,0,0,0,.128.282.279.279,0,0,0,.181.112,1.527,1.527,0,0,0,.433-.04l2.859-.524a.953.953,0,0,0,.5-.179.519.519,0,0,0,.058-.415l-.028-.156.12-.022.622,3.392-.955.224-.023-.126a1.428,1.428,0,0,0,.449-.239.547.547,0,0,0,.154-.279,1.464,1.464,0,0,0-.035-.466l-.221-1.205Zm-3.354,7.993-.091-1.19,1.974-1.672-.021-.274-.008-.092,0-.036c0-.014,0-.036,0-.066l-1.3.1a.915.915,0,0,0-.517.132.467.467,0,0,0-.117.385l.013.174-.122.009-.145-1.907.122-.009.013.167a.449.449,0,0,0,.215.39,1.033,1.033,0,0,0,.489.032l2.881-.219a.909.909,0,0,0,.516-.132.48.48,0,0,0,.116-.392l-.012-.167.121-.009.124,1.626a3.93,3.93,0,0,1-.022,1.062,1.181,1.181,0,0,1-.339.6,1,1,0,0,1-.647.286,1.04,1.04,0,0,1-.733-.214,1.541,1.541,0,0,1-.494-.8l-1.207,1.02a2.313,2.313,0,0,0-.545.588,1.451,1.451,0,0,0-.139.607l-.121.009Zm2.055-3.346v.109l.006.076a1.454,1.454,0,0,0,.352.942.888.888,0,0,0,.73.273.925.925,0,0,0,.658-.312.939.939,0,0,0,.21-.716,2.9,2.9,0,0,0-.1-.514l-1.855.141Zm2.326,7.789a2.03,2.03,0,0,1-.772,1.453,2.28,2.28,0,0,1-1.7.513,2.349,2.349,0,0,1-1.637-.769,2.147,2.147,0,0,1,.218-3.1,2.348,2.348,0,0,1,1.741-.5,2.273,2.273,0,0,1,1.678.854A2.143,2.143,0,0,1,2671.658,64.987Zm-.238-.081a1.183,1.183,0,0,0-.371-.991,2.524,2.524,0,0,0-1.582-.573,2.652,2.652,0,0,0-1.713.339,1.157,1.157,0,0,0-.518.912,1.3,1.3,0,0,0,.411,1.073,2.387,2.387,0,0,0,1.512.526,2.692,2.692,0,0,0,1.738-.322A1.217,1.217,0,0,0,2671.421,64.906Zm-.587,4.27-1.728-.317-.147.8a.569.569,0,0,0,.048.421.849.849,0,0,0,.452.264l-.022.12-1.5-.274.021-.12a.848.848,0,0,0,.383,0,.45.45,0,0,0,.217-.144.713.713,0,0,0,.124-.321l.147-.8-1.382-.253a1.5,1.5,0,0,0-.449-.039.315.315,0,0,0-.164.112.623.623,0,0,0-.132.285l-.029.16-.12-.022.347-1.894.12.022-.029.156a.487.487,0,0,0,.086.427,1,1,0,0,0,.486.169l2.842.521a1.507,1.507,0,0,0,.449.039.3.3,0,0,0,.165-.109.6.6,0,0,0,.132-.285l.028-.156.12.022-.6,3.274-.977-.136.021-.113a1.408,1.408,0,0,0,.489-.11.655.655,0,0,0,.261-.238,1.52,1.52,0,0,0,.16-.5l.177-.969Zm-3.357,5.11-1.253-.352a.906.906,0,0,0-.529-.053.47.47,0,0,0-.242.325l-.047.165-.117-.033.52-1.847.116.033-.046.163a.452.452,0,0,0,.068.441,1.091,1.091,0,0,0,.449.2l2.781.782a.948.948,0,0,0,.53.056.487.487,0,0,0,.244-.33l.045-.163.117.033-.443,1.577a2.939,2.939,0,0,1-.374.88,1.289,1.289,0,0,1-.559.446,1.079,1.079,0,0,1-.737.04,1.178,1.178,0,0,1-.762-.588,1.42,1.42,0,0,1-.055-1.073,2.953,2.953,0,0,1,.115-.33c.047-.112.105-.234.177-.367Zm.183.052-.131.285-.079.217a.781.781,0,0,0,.1.639.96.96,0,0,0,.591.426,1.24,1.24,0,0,0,.545.031.821.821,0,0,0,.452-.223.972.972,0,0,0,.256-.44,1.964,1.964,0,0,0,.056-.432l-1.788-.5Zm-.045,6.26.112.045-.586,1.468-.114-.045.062-.156a.451.451,0,0,0-.055-.458.992.992,0,0,0-.415-.24l-1.687-.674a3.22,3.22,0,0,1-.92-.509,1.314,1.314,0,0,1-.393-.723,1.862,1.862,0,0,1,.145-1.09,2,2,0,0,1,.647-.939,1.414,1.414,0,0,1,.836-.247,3.792,3.792,0,0,1,1.063.311l1.626.649a.9.9,0,0,0,.544.1.467.467,0,0,0,.256-.3l.063-.156.113.045-.717,1.794-.113-.045.063-.159a.436.436,0,0,0-.015-.432,1,1,0,0,0-.43-.26l-1.811-.723c-.086-.034-.174-.066-.262-.094s-.191-.057-.311-.085a1.289,1.289,0,0,0-.555-.035.945.945,0,0,0-.419.222,1.186,1.186,0,0,0-.181.212,1.486,1.486,0,0,0-.147.282,1.609,1.609,0,0,0-.117.8,1.017,1.017,0,0,0,.278.623,2.844,2.844,0,0,0,.9.5l1.683.672a.921.921,0,0,0,.521.109.483.483,0,0,0,.277-.3l.062-.156Zm-5.516,3.909-.076.083-.859-.938,1.732-3,.105.061-.084.145a.447.447,0,0,0-.042.444,1.066,1.066,0,0,0,.388.3l2.5,1.443a.922.922,0,0,0,.5.182.484.484,0,0,0,.317-.258l.084-.145.105.061-1.013,1.756-.105-.061a1.331,1.331,0,0,0,.193-.468.45.45,0,0,0-.053-.256,1.5,1.5,0,0,0-.411-.3l-2.434-1.405a.921.921,0,0,0-.353-.142.234.234,0,0,0-.151.057,2.169,2.169,0,0,0-.283.426l-.163.283a2.388,2.388,0,0,0-.3.666.913.913,0,0,0,.045.454,2.272,2.272,0,0,0,.356.608Zm-2.723,1.9,4.067.778-2.434-1.735a.923.923,0,0,0-.471-.226.488.488,0,0,0-.338.235l-.092.129-.1-.071.905-1.271.1.071-.092.129a.462.462,0,0,0-.094.428.439.439,0,0,0,.11.144,1.874,1.874,0,0,0,.239.2l2.381,1.7a1,1,0,0,0,.388.195.367.367,0,0,0,.229-.046.92.92,0,0,0,.284-.287l.1.071-.736,1.034-3.789-.711,1.922,3.329-.739,1.036-.1-.071.091-.127a.461.461,0,0,0,.1-.43.435.435,0,0,0-.111-.144,1.874,1.874,0,0,0-.239-.2l-2.381-1.7a.887.887,0,0,0-.472-.223.487.487,0,0,0-.338.235l-.09.127-.1-.07,1.106-1.552.1.07-.093.129a.457.457,0,0,0-.094.428.449.449,0,0,0,.11.144,2.082,2.082,0,0,0,.24.2l2.435,1.735-2.064-3.59Zm-.25,7.634a2.03,2.03,0,0,1-1.52.631,2.276,2.276,0,0,1-1.635-.679,2.35,2.35,0,0,1-.777-1.634,2.147,2.147,0,0,1,2.136-2.254,2.35,2.35,0,0,1,1.662.719,2.27,2.27,0,0,1,.753,1.725,2.138,2.138,0,0,1-.621,1.492Zm-.132-.214a1.183,1.183,0,0,0,.343-1,2.518,2.518,0,0,0-.859-1.447,2.651,2.651,0,0,0-1.538-.826,1.157,1.157,0,0,0-.979.375,1.3,1.3,0,0,0-.365,1.091,2.388,2.388,0,0,0,.835,1.366,2.694,2.694,0,0,0,1.547.856,1.217,1.217,0,0,0,1.017-.413Zm-1.8,2.15-.914.791-4.264-.733,1.693,1.946c.18.207.316.317.407.328a.488.488,0,0,0,.384-.149l.117-.1.08.092-1.178,1.024-.079-.092.12-.1a.46.46,0,0,0,.191-.394.442.442,0,0,0-.073-.165,2,2,0,0,0-.187-.246l-2.475-2.847.087-.076,4.59.781-1.805-2.077c-.18-.206-.315-.317-.406-.33a.5.5,0,0,0-.383.149l-.12.1-.079-.092,1.178-1.024.08.092-.118.1a.46.46,0,0,0-.194.4.444.444,0,0,0,.073.165,1.9,1.9,0,0,0,.188.246l2.041,2.348a1.793,1.793,0,0,0,.412.033,1.218,1.218,0,0,0,.319-.091,1.088,1.088,0,0,0,.238-.168l.08.092Zm-6.031,5.037a2.032,2.032,0,0,1-1.61.34,2.282,2.282,0,0,1-1.482-.969,2.355,2.355,0,0,1-.462-1.75,2.147,2.147,0,0,1,2.516-1.822,2.35,2.35,0,0,1,1.5,1.014,2.274,2.274,0,0,1,.423,1.835,2.142,2.142,0,0,1-.885,1.352Zm-.091-.234a1.187,1.187,0,0,0,.522-.921,2.527,2.527,0,0,0-.577-1.58,2.653,2.653,0,0,0-1.36-1.1,1.156,1.156,0,0,0-1.031.188,1.291,1.291,0,0,0-.558,1,2.382,2.382,0,0,0,.567,1.5,2.689,2.689,0,0,0,1.364,1.127,1.215,1.215,0,0,0,1.074-.219Zm-7.308.867-.107.034-.278-1.241,3-1.739.061.105-.145.085a.448.448,0,0,0-.258.363,1.061,1.061,0,0,0,.186.457l1.449,2.5c.14.241.255.378.344.407a.482.482,0,0,0,.4-.066l.145-.084.061.105-1.752,1.018-.061-.105a1.317,1.317,0,0,0,.4-.31.436.436,0,0,0,.081-.249,1.446,1.446,0,0,0-.207-.463l-1.412-2.431a.918.918,0,0,0-.235-.3.232.232,0,0,0-.159-.026,2.19,2.19,0,0,0-.458.228l-.282.164a2.4,2.4,0,0,0-.591.429.921.921,0,0,0-.187.416,2.287,2.287,0,0,0,.007.7Zm-1.245,4.173a2.033,2.033,0,0,1-1.646.019,2.275,2.275,0,0,1-1.263-1.24,2.35,2.35,0,0,1-.111-1.806,2.148,2.148,0,0,1,2.823-1.294,2.347,2.347,0,0,1,1.274,1.288,2.266,2.266,0,0,1,.055,1.882,2.14,2.14,0,0,1-1.132,1.152Zm-.043-.248a1.182,1.182,0,0,0,.691-.8,2.52,2.52,0,0,0-.255-1.663,2.655,2.655,0,0,0-1.12-1.34,1.156,1.156,0,0,0-1.049-.018,1.3,1.3,0,0,0-.745.876,2.388,2.388,0,0,0,.265,1.579,2.694,2.694,0,0,0,1.116,1.372A1.216,1.216,0,0,0,2642.472,105.576Zm-6.808,2.593-.492-1.328.111-.031a1.942,1.942,0,0,0,.651.644,1.408,1.408,0,0,0,1.093.094,1.465,1.465,0,0,0,1.07-1,2.438,2.438,0,0,0-.008-1.41,2.713,2.713,0,0,0-.555-1.054,1.744,1.744,0,0,0-.835-.57,1.547,1.547,0,0,0-.861-.015,1.855,1.855,0,0,0-.449.192,1.777,1.777,0,0,0-.375.3l.35,1.246a1.209,1.209,0,0,0,.169.411.36.36,0,0,0,.2.11.929.929,0,0,0,.379-.05l.033.117-1.666.468-.033-.117.079-.022a.373.373,0,0,0,.293-.26.55.55,0,0,0,0-.183,2.385,2.385,0,0,0-.067-.3l-.371-1.318a3.106,3.106,0,0,1,1.406-.806,2.386,2.386,0,0,1,2.122.267,2.221,2.221,0,0,1,.876,1.248,2.387,2.387,0,0,1,.088.572,2.532,2.532,0,0,1-.056.594,2.428,2.428,0,0,1-.622,1.2,2.478,2.478,0,0,1-1.482.672,3.754,3.754,0,0,1-.588-.014.916.916,0,0,0-.258,0,.129.129,0,0,0-.084.08.487.487,0,0,0,.006.237l-.119.033Zm-4.3.8-1.535.282-.021-.12.084-.015a.672.672,0,0,0,.234-.119.974.974,0,0,0,.251-.264,3.02,3.02,0,0,0,.248-.521l.754-1.865-.2-1.1a.887.887,0,0,0-.183-.489.512.512,0,0,0-.416-.065l-.143.026-.022-.12,1.875-.344.022.12-.157.029a.375.375,0,0,0-.387.421,2.032,2.032,0,0,0,.036.307l.192,1.042,1.544,1.622a4.43,4.43,0,0,0,.366.352,1.233,1.233,0,0,0,.35.137.477.477,0,0,0,.194,0l.022.12-1.881.345-.021-.12.1-.018a.586.586,0,0,0,.268-.121.234.234,0,0,0,.087-.239,1.03,1.03,0,0,0-.275-.385l-1.18-1.25-.611,1.515a1.01,1.01,0,0,0-.112.49.293.293,0,0,0,.074.149.3.3,0,0,0,.16.09.66.66,0,0,0,.269-.006l.022.12Z" transform="translate(-2575.346 -13.349)" fill="#284480"/>
      </g>
      <path id="Path_157" data-name="Path 157" d="M892.992,1028.9c.214.2.067.356.472.921a2.9,2.9,0,0,0,.783.7c.3.188.554.352.874.539.85.5.609.491,1.3.892,1.77,1.028,1.024,4.091,1.006,5.852,0,.365-.057.389-.074.7-.053.978-.038,1.821-.068,2.828l-.14,2.749c.01.367.12.943.137,1.347a17.858,17.858,0,0,0,1.342,5.935,8.464,8.464,0,0,0,2.585,3.278,7.554,7.554,0,0,0,1.91.987,20.651,20.651,0,0,0,2.4.567,45.484,45.484,0,0,1,6.732,2.029c.682.225,1.471.508,2.139.758a30.029,30.029,0,0,0,4.5,1.359,6.223,6.223,0,0,0,2.577.091,1.206,1.206,0,0,0,.489-.218,2.1,2.1,0,0,0,1.038-1.152c.59-1.324.472-3.59.24-5.257a31.6,31.6,0,0,0-.437-3.166c-.579-2.518-1.041-3.953-1.737-6.317-.544-1.849-2.389-7.264-3.183-9.251l-2.091-4.409c-.172-.348-.341-.617-.518-.966l-.528-.956c-1.5-2.486-2.75-4.713-4.524-7.133a17.4,17.4,0,0,0-2.886-2.907,11.444,11.444,0,0,0-4.817-2.531c-1.987-.531-5.335-.2-5.715,2.64-.258,1.933.477,3.112,1.115,4.716l.565,1.555c.4,1.1,1.241,3.164.3,3.9-.853.666-3.625-.143-4.257-2.555a55.1,55.1,0,0,1-.067-5.8v-.493c-.062-.479-.119-.965-.171-1.453h-2.229c-.1.753-.214,1.569-.353,2.505v4.035a3.584,3.584,0,0,1-1.256,3.124,3.886,3.886,0,0,1-2.076.821c-.585.063-.907.013-1.18-.285-.958-1.046,1.082-5.567,1.516-6.868.453-1.359,1.111-3.318.007-4.617a4.57,4.57,0,0,0-4.432-1.292,12.066,12.066,0,0,0-5.421,2.563l-.826.658a3.114,3.114,0,0,0-.412.366l-.4.378-.036.035a36.517,36.517,0,0,0-4.692,6.188,85.648,85.648,0,0,0-4.4,8.807c-.519,1.4-1.008,2.811-1.5,4.293-.7,2.1-1.407,4.57-2.047,6.713-.242.809-.409,1.511-.64,2.327-.109.388-.232.751-.307,1.106l-.684,3.767c-.235,1.479-.605,4.6.221,5.847a3.557,3.557,0,0,0,.418.643.787.787,0,0,0,.179.174,3.98,3.98,0,0,0,3.094.5c1.812-.2,8.583-2.939,11-3.629,1.35-.386,4.211-.876,4.739-1.054a7.518,7.518,0,0,0,1.961-1.006,9.793,9.793,0,0,0,2.49-2.6c1.371-2.539,2.113-7.548,1.857-10.64-.073-.876-.089-1.834-.137-2.759-.031-.579-.271-2.874-.232-3.339a9.589,9.589,0,0,1,.212-1.979c.417-2.12,2.713-2.159,3.806-3.542a2.292,2.292,0,0,0,.473-1.031Zm5.7,2.278a4.607,4.607,0,0,1,.938,2.217,13.764,13.764,0,0,1,0,3.331v.006c-.038.459-.075.892-.077,1.088a3.714,3.714,0,0,1-.061.732l0,.008c-.006.036-.01.027-.011.05-.031.579-.039,1.139-.047,1.7-.005.364-.011.73-.021,1.081l-.136,2.7c.014.181.036.35.058.519.032.242.064.484.075.741.016.378.065.857.143,1.385.074.509.173,1.051.292,1.574.1.453.217.888.34,1.27a5.629,5.629,0,0,0,.339.854,11.872,11.872,0,0,0,.849,1.434,4.611,4.611,0,0,0,1.1,1.118,6.544,6.544,0,0,0,.688.425,5.316,5.316,0,0,0,.732.317,11.214,11.214,0,0,0,1.4.337l.237.049.533.117a31.662,31.662,0,0,1,4.8,1.345l.007,0c.5.179,1.1.393,2.122.729.349.115.723.245,1.112.385s.74.27,1.1.4c.677.254,1.372.5,2.079.72a20.875,20.875,0,0,0,2.109.544,9.043,9.043,0,0,0,.9.141,2.721,2.721,0,0,0,.735-.012h0a.506.506,0,0,0,.239-.245,2.438,2.438,0,0,0,.156-.555,6.707,6.707,0,0,0,.088-.858,12.529,12.529,0,0,0-.014-1.28c-.029-.507-.084-1.009-.147-1.467-.049-.35-.086-.707-.124-1.063a15.954,15.954,0,0,0-.282-1.929c-.235-1.022-.449-1.855-.665-2.642s-.443-1.547-.7-2.406l-.341-1.151c-.124-.421-.342-1.1-.614-1.931-.278-.845-.609-1.826-.947-2.81-.332-.965-.644-1.857-.9-2.559-.247-.686-.466-1.277-.632-1.7l-2.073-4.371c-.071-.143-.157-.3-.244-.454-.076-.136-.151-.272-.217-.4l-.349-.6a79.821,79.821,0,0,0-4.562-7.267,10.824,10.824,0,0,0-1.186-1.339c-.447-.435-.912-.838-1.368-1.221-.325-.274-.642-.519-.962-.74a9.2,9.2,0,0,0-.947-.576,8.68,8.68,0,0,0-.988-.442c-.35-.132-.729-.251-1.146-.362a4.606,4.606,0,0,0-1.292-.147,3.486,3.486,0,0,0-1.141.21,1.3,1.3,0,0,0-.54.361,1.01,1.01,0,0,0-.222.527,3.593,3.593,0,0,0,.1,1.426,10.549,10.549,0,0,0,.534,1.425l.005.013c.089.208.181.423.349.847l.429,1.174h0l.374,1.009-.008,0a10.016,10.016,0,0,1,.628,2.511,3.314,3.314,0,0,1-1.2,3.089,3,3,0,0,1-1.173.554q-.131.031-.265.051Zm.079,2.357a3.458,3.458,0,0,0-1.416-2.416l.295-.79a3.272,3.272,0,0,0,1.109-.05,2.136,2.136,0,0,0,.837-.39,2.506,2.506,0,0,0,.863-2.333,9.727,9.727,0,0,0-.636-2.448l-.242-.653h0l-.5-1.358c-.137-.346-.239-.584-.337-.813l-.005-.013a11.183,11.183,0,0,1-.575-1.546,4.435,4.435,0,0,1-.12-1.762v0a1.859,1.859,0,0,1,.416-.97,2.158,2.158,0,0,1,.894-.613,4.356,4.356,0,0,1,1.431-.268,5.488,5.488,0,0,1,1.541.174c.438.117.843.245,1.227.39a9.486,9.486,0,0,1,1.087.486,10.023,10.023,0,0,1,1.036.63c.335.232.673.494,1.027.791.479.4.964.824,1.416,1.262a11.693,11.693,0,0,1,1.282,1.447,80.513,80.513,0,0,1,4.614,7.345l.363.628c.072.138.141.263.21.388.088.158.176.317.266.5l2.079,4.382.01.025c.171.432.4,1.041.652,1.747.3.84.614,1.727.9,2.569.34.989.672,1.974.951,2.82.263.8.483,1.491.62,1.958l.341,1.151c.253.852.478,1.607.7,2.42s.441,1.659.676,2.679a16.727,16.727,0,0,1,.3,2.034c.036.34.072.682.12,1.033.066.475.123,1,.154,1.537a13.29,13.29,0,0,1,.014,1.365,7.489,7.489,0,0,1-.1.974,3.3,3.3,0,0,1-.217.756,1.185,1.185,0,0,1-.559.62l-.069.045-.131.058a3.36,3.36,0,0,1-1.089.047,9.7,9.7,0,0,1-.99-.152,21.5,21.5,0,0,1-2.2-.568c-.717-.223-1.43-.476-2.127-.738-.368-.138-.733-.273-1.088-.4s-.7-.247-1.09-.375h0c-.985-.324-1.612-.548-2.136-.735l-.009,0a30.969,30.969,0,0,0-4.7-1.318l-.526-.115a2.244,2.244,0,0,0-.227-.046,11.44,11.44,0,0,1-1.516-.372,6.134,6.134,0,0,1-.851-.368,7.388,7.388,0,0,1-.78-.48,5.473,5.473,0,0,1-1.313-1.326,12.578,12.578,0,0,1-.913-1.539,6.459,6.459,0,0,1-.4-.99c-.131-.407-.253-.868-.361-1.344-.126-.559-.23-1.122-.306-1.64-.08-.545-.131-1.056-.149-1.476-.009-.216-.039-.44-.068-.663-.026-.2-.052-.4-.066-.591v-.051l.137-2.723c.011-.362.016-.71.021-1.059.008-.584.016-1.167.047-1.734a1.344,1.344,0,0,1,.022-.156l0-.008h0a3.058,3.058,0,0,0,.051-.59c0-.269.038-.7.076-1.152v-.006a13.166,13.166,0,0,0,.014-3.12Zm-11.123-2.349a3.218,3.218,0,0,1-.469-.091,2.82,2.82,0,0,1-1.364-.848c-.836-.913-.851-2.38-.541-3.91a26.3,26.3,0,0,1,1.3-4.051l.07-.181c.09-.232.182-.468.268-.729h0c.306-.917.744-2.233.374-2.669a2.2,2.2,0,0,0-1.794-.678,8.311,8.311,0,0,0-3.163.872,10.418,10.418,0,0,0-1.1.6,6.819,6.819,0,0,0-.978.736l-.022.02-.841.666a4.626,4.626,0,0,0-.349.312l-.308.309a23.854,23.854,0,0,0-2.355,2.788c-.725.989-1.4,2.024-2.068,3.06-.213.332-.527.887-.89,1.563-.412.769-.872,1.659-1.312,2.539s-.9,1.822-1.28,2.645c-.34.73-.6,1.329-.732,1.674-.257.689-.508,1.392-.756,2.1-.255.731-.493,1.434-.72,2.119-.248.746-.512,1.591-.779,2.47-.245.806-.525,1.751-.8,2.672l-.119.4c-.237.8-.475,1.6-.69,2.413l-.011.04c-.121.454-.241.908-.372,1.345l0,.008c-.068.228-.134.448-.161.578l-.017.079-.653,3.592c-.053.337-.115.769-.165,1.248s-.09.986-.1,1.477a9.011,9.011,0,0,0,.039,1.115,1.551,1.551,0,0,0,.138.578c.059.09.1.161.138.223s.07.126.1.176l0,.005a3.493,3.493,0,0,0,1.485.025l.084-.009a53.566,53.566,0,0,0,6.27-2.054l.007,0c1.765-.638,3.415-1.235,4.367-1.507.744-.212,2.051-.478,3.15-.7h.011c.319-.064.611-.124.992-.2.26-.055.444-.1.5-.115a5.421,5.421,0,0,0,1.4-.717,8.4,8.4,0,0,0,1.222-1.071c.163-.169.315-.341.443-.5a2.563,2.563,0,0,0,.248-.358,9.9,9.9,0,0,0,.712-1.8,21.459,21.459,0,0,0,.575-2.479h0a26.063,26.063,0,0,0,.335-2.8,17.175,17.175,0,0,0,0-2.44c-.047-.575-.07-1.189-.094-1.8-.012-.33-.025-.661-.044-1.019l-.083-.953c-.04-.458-.085-.977-.119-1.486a9.5,9.5,0,0,1-.03-1.169c.016-.2.025-.308.028-.371.005-.1.006-.135.007-.17a6.239,6.239,0,0,1,.036-.626c.027-.24.077-.547.173-1.032a4.794,4.794,0,0,1,.6-1.588c.067-.11.136-.213.21-.312Zm-.241-.928a3.271,3.271,0,0,0,1.21.055l.325.766a3.5,3.5,0,0,0-.762.872,3.928,3.928,0,0,0-.485,1.3c-.092.464-.138.75-.163.964a5.413,5.413,0,0,0-.033.548c0,.058,0,.122-.007.2-.006.107-.014.234-.028.4a8.776,8.776,0,0,0,.03,1.04c.029.435.077.984.119,1.468l.018.2c.034.387.061.7.065.781.017.324.03.678.044,1.032.022.577.043,1.155.094,1.763a18.082,18.082,0,0,1,0,2.566,26.863,26.863,0,0,1-.345,2.894,22.42,22.42,0,0,1-.6,2.583,10.777,10.777,0,0,1-.78,1.96,3.488,3.488,0,0,1-.333.487c-.143.178-.314.37-.5.561a9.213,9.213,0,0,1-1.348,1.18,6.287,6.287,0,0,1-1.626.83c-.1.033-.311.082-.6.142-.164.035-.565.116-1,.2h-.01c-1.068.216-2.34.474-3.089.688-.942.269-2.563.856-4.3,1.484l-.018.007a51.075,51.075,0,0,1-6.485,2.1l-.069.007c-.546.061-1.661.185-2.163-.24a.726.726,0,0,1-.113-.124,1.026,1.026,0,0,1-.077-.122l-.083-.152c-.032-.056-.068-.115-.108-.176a2.268,2.268,0,0,1-.278-.964,9.925,9.925,0,0,1-.043-1.223c.009-.531.049-1.066.1-1.556s.116-.935.172-1.292c.277-1.368.5-2.773.755-4.151l.034.008c.01-.031.067-.21.067-.227.133-.446.249-.882.365-1.318l.01-.041c.217-.815.457-1.625.7-2.436l.118-.4c.252-.85.511-1.727.8-2.679.267-.878.532-1.726.786-2.491.244-.734.486-1.449.724-2.132q.367-1.054.763-2.12c.145-.39.416-1.008.757-1.738.353-.758.809-1.7,1.294-2.665.463-.927.927-1.828,1.322-2.563.372-.694.7-1.27.924-1.621.673-1.047,1.358-2.094,2.1-3.1a25.616,25.616,0,0,1,2.135-2.579l-.011-.012.32-.308.164-.161a6.594,6.594,0,0,1,.567-.518l.837-.665a7.746,7.746,0,0,1,1.079-.812,11.339,11.339,0,0,1,1.192-.647,9.174,9.174,0,0,1,3.524-.954,3.026,3.026,0,0,1,2.468.985c.685.806.155,2.4-.214,3.5h0c-.079.24-.183.507-.285.77l-.07.179a25.532,25.532,0,0,0-1.254,3.909c-.261,1.288-.278,2.491.33,3.155a1.975,1.975,0,0,0,.951.6Z" transform="translate(-844.847 -995.024)" fill-rule="evenodd" fill="url(#linear-gradient)"/>
      <path id="Path_158" data-name="Path 158" d="M852.344,693.616h0c.052.036.1.07.155.1l.378.24v0c.18.113.358.222.526.32h0a3.4,3.4,0,0,1,.568.38c.079.067.156.131.281.222a5.192,5.192,0,0,0,.448.287c.765.445.625,2.128.51,3.506h0v.011h0c-.036.439-.071.854-.076,1.313a1.178,1.178,0,0,1-.024.211h0a3,3,0,0,0-.05.439c-.031.582-.039,1.15-.047,1.716-.005.367-.01.735-.02,1.09l-.013.471h-.01l-.117,2.387c.008.232.041.49.075.753l0,.009h0l.037.3c.011.1.019.189.023.278.02.468.078,1.046.168,1.671.086.6.2,1.234.339,1.843.129.57.281,1.132.453,1.646a8.606,8.606,0,0,0,.507,1.233,14.341,14.341,0,0,0,1.256,2.05,7.363,7.363,0,0,0,1.677,1.627,9.38,9.38,0,0,0,1.053.636,8.764,8.764,0,0,0,1.127.485,15.615,15.615,0,0,0,2.169.531l.34.067.01,0a29.079,29.079,0,0,1,4.412,1.241l.009,0c.582.207,1.278.456,2.17.749h0c.316.1.666.224,1.048.358q.513.18,1.042.379c.753.282,1.527.557,2.315.8a23.124,23.124,0,0,0,2.35.606,10.613,10.613,0,0,0,1.561.207,5.192,5.192,0,0,0,1.5-.13,2.412,2.412,0,0,0,.484-.167,3.954,3.954,0,0,0,.461-.278,4.079,4.079,0,0,0,.764-.589,3.487,3.487,0,0,0,.576-.974,7.62,7.62,0,0,0,.526-2.838,19.007,19.007,0,0,0-.2-3.018c-.029-.211-.052-.4-.072-.573l-.052-.5c-.035-.345-.069-.679-.12-1.044-.049-.35-.114-.719-.209-1.137-.484-2.106-.886-3.457-1.406-5.208-.08-.152-.275-.926-.341-1.15-.144-.49-.373-1.213-.647-2.049s-.606-1.824-.945-2.808c-.322-.935-.641-1.844-.919-2.611-.261-.721-.5-1.359-.689-1.834l-2.126-4.49c-.093-.186-.177-.34-.262-.493s-.181-.328-.248-.459l-.574-1.043-.873-1.452c-.579-.971-1.142-1.914-1.744-2.866s-1.226-1.887-1.945-2.868a13.368,13.368,0,0,0-1.425-1.624c-.526-.517-1.078-1-1.636-1.468-.418-.353-.826-.667-1.236-.95a11.671,11.671,0,0,0-2.535-1.334,14.957,14.957,0,0,0-1.464-.468,7.6,7.6,0,0,0-3.462-.092,5.017,5.017,0,0,0-2.5,1.266,3.8,3.8,0,0,1-.192.611l-.047.124a1.173,1.173,0,0,1-.157.462c-.049.087-.1.179-.1.917l.268,2.671a13.164,13.164,0,0,1,.532,2.3,20.959,20.959,0,0,0,1.038,4.091l.272.735-.767-.162c-.069-.014-.14-.033-.211-.055s-.144-.048-.222-.079c-1.277-.5-2.09-2.884-2.6-5.84-.839-4.818-.474-11.252-.491-13.128h-2.323c0,2.646.642,18.376-3.336,19.068l-.647.113.152-.64a20.219,20.219,0,0,1,.906-2.991,8.763,8.763,0,0,0,.6-3.013l.086-.906a15.206,15.206,0,0,0,.088-3.675c-.288-1.673-1.554-2.543-5.529-1.858a12.758,12.758,0,0,0-3.171,1.034,11.75,11.75,0,0,0-2.728,1.738l-.306.269-.015-.015-.175.14,0,0-.349.274c-.088.068-.17.136-.251.207s-.154.139-.233.219c-.015.012-.122.112-.122.116-.112.106-.224.212-.321.305l-.023.018a26.442,26.442,0,0,0-2.559,3.021c-.792,1.075-1.532,2.2-2.256,3.324-.23.358-.567.953-.954,1.675-.44.819-.929,1.768-1.4,2.706s-.952,1.934-1.35,2.793c-.359.774-.643,1.421-.79,1.815q-.394,1.06-.772,2.15c-.26.746-.5,1.464-.735,2.165-.568,1.709-1.091,3.473-1.613,5.235l-.439,1.481c-.133.446-.249.881-.365,1.317-.122.457-.244.915-.376,1.354v.005c-.081.27-.158.53-.223.837l-.69,3.8a21.479,21.479,0,0,0-.3,3.5,6.038,6.038,0,0,0,.7,3.136c.025.042.052.085.074.128a3.39,3.39,0,0,0,.326.507,2.639,2.639,0,0,0,.4.414l0,.005a3.489,3.489,0,0,0,1.812.787,8.136,8.136,0,0,0,1.973-.009l.16-.018a48.416,48.416,0,0,0,6.99-2.218l.018-.006c1.658-.6,3.207-1.16,4.129-1.424.751-.214,1.914-.45,2.891-.648l.01,0c.387-.078.743-.15,1.163-.242.323-.07.572-.13.7-.175a8.551,8.551,0,0,0,2.087-1.042,11.306,11.306,0,0,0,1.8-1.541,10.155,10.155,0,0,0,.716-.825,5.431,5.431,0,0,0,.478-.72,12.853,12.853,0,0,0,.916-2.26,23.9,23.9,0,0,0,.7-2.952,29.114,29.114,0,0,0,.376-3.187,20.178,20.178,0,0,0-.008-2.832c-.047-.566-.071-1.166-.095-1.767-.012-.306-.025-.613-.042-.944-.016-.293-.047-.648-.082-1.055v-.006h0v-.006h0c-.073-.839-.165-1.9-.148-2.1.013-.155.02-.279.024-.383l.011-.341a2.846,2.846,0,0,1,.027-.369c.022-.164.06-.387.132-.752a1.637,1.637,0,0,1,.638-.958,6.4,6.4,0,0,1,.929-.579c.234-.128.469-.257.709-.4a5.812,5.812,0,0,0,.654-.457l.264-.217.271.205.154.113Zm5.163,2.139a3.441,3.441,0,0,0-1.41-2.406l.293-.787a3.255,3.255,0,0,0,1.1-.05,2.122,2.122,0,0,0,.833-.388,2.5,2.5,0,0,0,.86-2.323,9.705,9.705,0,0,0-.633-2.438l-.242-.651h0l-.493-1.352c-.137-.345-.238-.581-.336-.81l-.005-.013a11.154,11.154,0,0,1-.573-1.54,4.421,4.421,0,0,1-.12-1.754v0a1.849,1.849,0,0,1,.414-.966,2.144,2.144,0,0,1,.891-.611,4.339,4.339,0,0,1,1.425-.266,5.462,5.462,0,0,1,1.534.173c.436.116.84.244,1.222.388a9.458,9.458,0,0,1,1.082.484,9.943,9.943,0,0,1,1.031.628c.334.23.671.492,1.022.788.477.4.961.82,1.41,1.257a11.653,11.653,0,0,1,1.277,1.441,80.127,80.127,0,0,1,4.594,7.314l.361.625c.071.138.14.262.209.386.088.158.175.316.265.495l2.07,4.363.01.026c.171.43.4,1.037.649,1.74.3.836.611,1.719.9,2.559.339.985.669,1.965.947,2.808.262.8.481,1.485.618,1.95l.34,1.146c.252.849.476,1.6.7,2.41s.439,1.652.673,2.668a16.669,16.669,0,0,1,.3,2.026c.036.339.071.679.12,1.029.066.473.123,1,.153,1.531a13.173,13.173,0,0,1,.014,1.359,7.517,7.517,0,0,1-.1.97,3.3,3.3,0,0,1-.217.752,1.18,1.18,0,0,1-.556.617l-.068.045-.13.058a3.344,3.344,0,0,1-1.084.047,9.718,9.718,0,0,1-.986-.151,21.466,21.466,0,0,1-2.188-.566c-.714-.222-1.424-.474-2.119-.734-.366-.137-.73-.272-1.084-.4s-.7-.246-1.085-.374h0c-.981-.323-1.605-.546-2.126-.731l-.009,0a30.871,30.871,0,0,0-4.68-1.312l-.524-.114a2.3,2.3,0,0,0-.226-.046,11.426,11.426,0,0,1-1.51-.37,6.159,6.159,0,0,1-.848-.366,7.331,7.331,0,0,1-.776-.478,5.441,5.441,0,0,1-1.307-1.32,12.52,12.52,0,0,1-.91-1.533,6.452,6.452,0,0,1-.395-.985c-.131-.406-.252-.864-.359-1.339-.126-.557-.229-1.117-.3-1.633-.079-.543-.13-1.052-.148-1.47-.009-.215-.039-.438-.068-.661-.026-.2-.052-.4-.066-.588v-.051l.137-2.711c.011-.36.016-.707.021-1.054.008-.581.016-1.163.047-1.727a1.266,1.266,0,0,1,.022-.155l0-.008h0a3.022,3.022,0,0,0,.05-.587c0-.269.039-.695.076-1.148v-.006a13.1,13.1,0,0,0,.014-3.107Zm-11.316-3.263a3.248,3.248,0,0,0,1.2.055l.324.763a3.482,3.482,0,0,0-.759.868,3.912,3.912,0,0,0-.483,1.3c-.091.463-.137.747-.162.96a5.43,5.43,0,0,0-.033.546c0,.057,0,.122-.007.2-.006.106-.015.232-.028.393a8.7,8.7,0,0,0,.03,1.036c.029.433.077.979.119,1.462l.018.2c.033.386.06.7.065.778.017.323.03.675.043,1.028.022.575.043,1.15.093,1.756a17.95,17.95,0,0,1,0,2.556,26.718,26.718,0,0,1-.343,2.881,22.262,22.262,0,0,1-.6,2.571,10.7,10.7,0,0,1-.776,1.952,3.409,3.409,0,0,1-.332.485c-.142.178-.313.369-.5.559a9.161,9.161,0,0,1-1.342,1.175,6.264,6.264,0,0,1-1.62.826c-.1.033-.31.082-.593.142-.164.035-.562.116-.991.2h-.01c-1.063.216-2.33.472-3.075.685-.938.268-2.553.853-4.282,1.478l-.018.007a50.9,50.9,0,0,1-6.458,2.092l-.068.007c-.544.061-1.654.185-2.154-.24a.727.727,0,0,1-.113-.122,1.039,1.039,0,0,1-.077-.122l-.083-.152c-.032-.056-.067-.114-.107-.175a2.262,2.262,0,0,1-.277-.959,9.951,9.951,0,0,1-.042-1.218c.009-.529.049-1.062.1-1.549s.116-.931.172-1.286c.276-1.362.5-2.762.752-4.133l.034.008c.01-.031.067-.209.067-.226.133-.444.248-.879.363-1.312l.011-.04c.216-.812.455-1.619.695-2.426l.118-.4c.25-.847.509-1.72.8-2.667.265-.874.529-1.719.782-2.48.243-.731.484-1.443.721-2.123q.365-1.049.759-2.111c.145-.389.415-1,.754-1.731.351-.755.806-1.69,1.288-2.654.461-.922.923-1.821,1.316-2.552.371-.691.695-1.264.92-1.614.671-1.042,1.352-2.085,2.09-3.091a25.493,25.493,0,0,1,2.126-2.568l-.012-.011.319-.307.163-.16a6.656,6.656,0,0,1,.565-.516l.834-.662a7.7,7.7,0,0,1,1.074-.808,11.328,11.328,0,0,1,1.187-.644,9.132,9.132,0,0,1,3.509-.95,3.013,3.013,0,0,1,2.458.98c.682.8.154,2.386-.213,3.488h0c-.079.239-.182.5-.284.766l-.069.178a25.417,25.417,0,0,0-1.249,3.893c-.26,1.283-.277,2.481.328,3.141a1.966,1.966,0,0,0,.948.594Z" transform="translate(-803.571 -657.348)" fill="#0077bd"/>
      <path id="Path_159" data-name="Path 159" d="M459.324,375.18a39.468,39.468,0,0,1,32.76,61.473h-1.147a38,38,0,1,0-63.227,0h-1.147a39.468,39.468,0,0,1,32.76-61.473Z" transform="translate(-411.207 -367.447)" fill-rule="evenodd" fill="url(#linear-gradient-2)"/>
      <path id="Path_160" data-name="Path 160" d="M1055.345,3379.237c-3.253-1.193-2.759-1.786.49-3.254,2.973-1.344,6.615-1.739,7.533-4.462-.266.01-8.923,2.381-9.824,2.593-2.912.683-8.981-.79-11.769-.095-3.078.767-3.45,2.25-11.2,2.735-.39.023-1.3-.011-1.469.031-.207.05-.332.1-.549.174,8.931,4.064,18.117,5.789,27.975,6.671,8.006.7,11.061-1.281,17.177-3.648,1.736-.671,4.526-.785,5.7-1.447-.636-1.29-4.222-1.339-5.94-1.2a25.743,25.743,0,0,0-5.678,1.5c-4.48,1.457-7.749,2.02-12.446.409Zm9.439-.048c2.145-.566,5.074-1.7,7.036-2.072,1.7-.318,6.228-1.22,6.487-2.631-2.794-.983-5.534.7-7.29,1.571-1.99.982-4.115,2.193-6.233,3.133Zm-6.2.537c6.477.168,9.136-2.5,12.988-5.242a7.1,7.1,0,0,0,.671-.494l.2-.269a1.247,1.247,0,0,0,.041-.141c.01-.03,0-.121.009-.146a.344.344,0,0,0-.008-.148c-3.3-.719-5.515,2.642-9.963,4.881C1061.432,3378.715,1059.608,3379.12,1058.584,3379.725Z" transform="translate(-1007.362 -3302.034)" fill-rule="evenodd" fill="url(#linear-gradient-2)"/>
      <path id="Path_161" data-name="Path 161" d="M2347.962,58.76a.763.763,0,1,1-.763.763A.763.763,0,0,1,2347.962,58.76Z" transform="translate(-2298.825 -57.549)" fill="#2957a4" fill-rule="evenodd"/>
      <path id="Path_162" data-name="Path 162" d="M2390.763,4536.689a.763.763,0,1,1-.763.764A.763.763,0,0,1,2390.763,4536.689Z" transform="translate(-2340.744 -4443.19)" fill="#006b3e" fill-rule="evenodd"/>
      <path id="Path_163" data-name="Path 163" d="M2355.693,1168.649a2.283,2.283,0,1,0,2.1,4.055C2360.383,1171.386,2358.393,1167.233,2355.693,1168.649Zm-2.064,24.445a14.426,14.426,0,0,0,1.987-1.938c.663-.762,1.187-1.458,1.717-2.188a14.868,14.868,0,0,0,1.245-2.385,8.683,8.683,0,0,0,.491-1.275l.475-1.424c.372,1.13.792,2.189,1.146,3.408.33,1.135.5,2.622.834,3.605.638-2.017.245-6.943-.409-9.294l-1.834-5.9a6.45,6.45,0,0,0,3.073-3.036,7.361,7.361,0,0,0,.543-4.039c-1.96,3.995-3.082,5.961-7.778,4.626-7.719-2.2-10.349-7.194-11.256-14.642-.3,6.812,3.083,15.278,10.134,17.348a4.214,4.214,0,0,1,2.446,2.646c1.165,2.609.581,5.679-.066,7.913A51,51,0,0,1,2353.629,1193.094Z" transform="translate(-2295.54 -1134.731)" fill="#fefefe" fill-rule="evenodd"/>
      <path id="Path_164" data-name="Path 164" d="M1459.394,1164.607a2.226,2.226,0,1,1-2.047,3.954C1454.82,1167.277,1456.76,1163.226,1459.394,1164.607Zm2.012,23.839a14.152,14.152,0,0,1-1.938-1.89c-.646-.743-1.157-1.422-1.674-2.134a14.58,14.58,0,0,1-1.215-2.326,8.486,8.486,0,0,1-.479-1.243l-.463-1.388c-.363,1.1-.772,2.135-1.117,3.323-.321,1.107-.489,2.557-.814,3.516-.622-1.968-.238-6.771.4-9.064l1.339-5.756a5.3,5.3,0,0,1-2.548-2.961,8.8,8.8,0,0,1-.749-4.378l.229.533c.751,2.239,2.051,3.906,3.954,4.493-.021.125-.039.241-.048.309-.026.21-.064.781-.062.871a.527.527,0,1,0,.439.062v0s.007-.681.027-.88c.005-.052.019-.147.036-.257a6.274,6.274,0,0,0,2.738-.055,2.471,2.471,0,0,1-.2.776,1.05,1.05,0,0,0-1.01.417,9.512,9.512,0,0,0-.355,1.066c-.025.095-.088.28.155.372.3.115.376-.316.276-.415a3.082,3.082,0,0,1,.345-.892c.185-.331.993-.148,1.128.263a2.359,2.359,0,0,1-.307,1.106.213.213,0,0,0-.045.378.271.271,0,0,0,.423-.107c.046-.083.195-.7.295-1.022a.891.891,0,0,0-.544-1.043,5.177,5.177,0,0,0,.225-.963l-.051-.017.158-.043c7.67-2.182,10.191-6.979,10.523-14.447.6,6.728-1.972,15.427-9.225,17.555a3.721,3.721,0,0,0-2.589,2.111c-1.137,2.544-.567,5.539.064,7.717a49.755,49.755,0,0,0,2.679,6.414Z" transform="translate(-1422.163 -1130.852)" fill="#fefefe" fill-rule="evenodd"/>
      <path id="Path_165" data-name="Path 165" d="M1683.853,1533.188l2.707.627a.716.716,0,0,1,.535.841l-.244,1.151a.684.684,0,0,1-.825.526l-2.708-.627a.716.716,0,0,1-.535-.841l.244-1.151A.685.685,0,0,1,1683.853,1533.188Z" transform="translate(-1648.089 -1501.571)" fill="#fefefe" fill-rule="evenodd"/>
    </g>
  </g>
</svg>
